<?xml version="1.0" encoding="utf-8"?>
<!-- Generator: Adobe Illustrator 27.9.0, SVG Export Plug-In . SVG Version: 6.00 Build 0)  -->
<svg version="1.1" id="Layer_1" xmlns="http://www.w3.org/2000/svg" xmlns:xlink="http://www.w3.org/1999/xlink" x="0px" y="0px"
	 viewBox="0 0 816.4 582.1" style="enable-background:new 0 0 816.4 582.1;" xml:space="preserve">
<style type="text/css">
	.st0{fill-rule:evenodd;clip-rule:evenodd;fill:#EFF299;}
	.st1{fill:#EFF299;}
</style>
<g>
	<g>
		<path class="st0" d="M21.4,558.3l7.8,6.2c50.6-64.2,115.4-117.2,188-155.3c72.6-38.1,153.1-61.5,235-66.7
			c28.2-1.8,56.7-1.6,85.2-3c28.3-1.4,56.8-4.4,84.2-12.5c27.4-8.1,53.7-21.7,74-42c20.3-20.3,34.1-47.8,35.1-76.6
			c0.8-25-8.7-50.4-26.7-67.7v0c-9-8.6-20.1-15.1-32-18.7c-12-3.5-24.8-4.1-37-1.3c-12.2,2.8-23.5,8.8-32.5,17.5h0
			c-8.9,8.7-15.3,19.9-18,32.1v0c-2.7,12.1-1.5,25.1,3.4,36.5c4.9,11.4,13.6,21.1,24.4,27.1c8.7,4.8,18.7,7.2,28.7,6.9
			c9.9-0.4,19.7-3.5,28-8.9c-8.3,5.4-18.1,8.4-28,8.7c-9.9,0.3-19.8-2.2-28.4-7c-10.7-6-19.1-15.8-23.9-27c-4.7-11.3-5.7-24-3-35.9
			c2.7-11.9,9.1-22.9,17.9-31.3h0c8.8-8.4,20-14.2,31.9-16.8c11.9-2.6,24.4-2,36,1.6c11.6,3.5,22.3,10,31,18.4
			c17.4,16.9,26.3,41.7,25.4,65.9c-1.1,27.9-14.8,54.5-34.7,74.1c-19.9,19.6-45.7,32.6-72.7,40.4c-26.9,7.7-55,10.4-83.1,11.6
			c-28.3,1.1-56.8,0.7-85.3,2.3h0c-82.8,4.6-164.5,27.5-238.3,65.5C139.7,440.2,73.5,493.3,21.4,558.3L21.4,558.3L21.4,558.3z"/>
		<path class="st0" d="M598.7,331.7c9.6-2.9,19.4-4,28.8-3.6c6.9-1,13.8-1.2,20.7-0.5c16.1,1.6,31.8,7.9,44.5,17.9
			c12.7,10,22.6,23.7,28,39v0c5.4,15.3,6.3,32.2,2.7,48c-3.5,15.2-11.2,29.4-22.1,40.5c-10.9,11.2-24.9,19.2-40.1,23
			c-15.1,3.8-31.3,3.3-46.2-1.6c-14.8-4.8-28.3-13.9-38.3-25.9c-11.3-13.6-18.1-31.2-17.2-48.7c0.4-8.8,2.7-17.5,6.9-25.2
			c1.9-3.5,4.1-6.8,6.7-9.8c3.1-3.7,6.6-7,10.6-9.7c7.2-5,15.8-8.1,24.7-8.6c8.8-0.5,17.9,1.5,25.6,6.1c7.7,4.6,14,11.6,17.5,20
			c3.5,8.4,4.1,18,1.4,26.8c-1.8,6-5.2,11.6-9.7,16c4.6-4.4,8.1-9.9,10.1-15.9c2.9-8.8,2.6-18.7-0.8-27.4
			c-3.4-8.7-9.7-16.1-17.6-21.1v0c-7.9-4.9-17.3-7.3-26.6-7c-9.3,0.3-18.4,3.4-26.2,8.5c-7.8,5.1-14.2,12.2-18.6,20.4
			c-4.4,8.2-6.9,17.3-7.4,26.6c-0.9,18.5,6.1,37,17.9,51.3c10.4,12.6,24.4,22.1,39.9,27.2c15.5,5.1,32.5,5.7,48.4,1.8
			c15.9-3.9,30.6-12.3,42.1-24c11.5-11.7,19.7-26.6,23.4-42.5v0c3.9-16.6,3-34.4-2.6-50.5c-5.6-16.2-15.9-30.7-29.4-41.3
			c-13.4-10.6-29.9-17.3-47-19.1C631.7,320.8,614.1,324,598.7,331.7L598.7,331.7z"/>
		<path class="st0" d="M105.4,474.9l5,6.1c34-28.2,59.4-66.4,72.3-108.5c12.8-42.1,13-87.9,0.5-130.1c-5.9-19.9-14.7-39.2-27.7-55.6
			c-13-16.4-30.5-29.7-50.6-35.9c-20.1-6.3-42.9-4.9-61.3,5.4c-9.2,5.2-17.2,12.6-22.9,21.5c-5.7,8.9-9.1,19.3-9.4,29.9
			c-0.4,12.3,3.5,24.7,10.9,34.5c7.4,9.8,18.3,17,30.2,19.7h0c12,2.7,24.9,1,35.6-4.9h0c10.7-5.9,19.1-16,22.9-27.6
			c4.1-12.6,2.6-26.8-4-38.2c6.4,11.5,7.7,25.7,3.5,38.1c-3.9,11.5-12.3,21.3-22.9,27h0c-10.6,5.7-23.3,7.2-34.9,4.4
			c-11.6-2.8-22.1-9.9-29.2-19.5c-7-9.6-10.6-21.6-10.1-33.5c0.4-10.2,3.8-20.2,9.4-28.7c5.6-8.5,13.4-15.5,22.3-20.4
			c17.8-9.7,39.7-10.7,58.9-4.5c19.2,6.2,35.9,19.2,48.3,35.2c12.4,16,20.7,34.9,26.3,54.4c0,0,0,0,0,0c11.7,41.3,11,86-1.9,126.8
			C163.7,411.4,138.6,448.2,105.4,474.9L105.4,474.9z"/>
		<path class="st0" d="M188.9,274.6c1.3,3.8,2.5,7.6,3.7,11.4c6.7-43.1,7.2-87.2,1.6-130.4c-1.6-12-3.6-23.8-4.7-35.6
			c-1.1-11.7-1.4-23.5,0.4-34.9c2.7-16.8,10-32.9,21.2-45.8c0,0,0,0,0,0c11.2-12.8,26.2-22.4,42.7-26.8c16.5-4.4,34.4-3.5,50.2,2.7
			c15.9,6.2,29.7,17.9,38.2,32.6c10.8,18.7,12.9,42.4,5.6,62.7c-7.3,20.4-24,37.4-44.3,45.1l0,0c-12.9,4.9-27.4,6.3-40.7,2.7
			c-13.3-3.5-25.5-12-32.4-23.9c-3.5-5.9-5.7-12.6-6.3-19.5v0c-0.6-6.8,0.5-13.8,3.2-20.2c2.7-6.3,7.1-11.9,12.6-16
			c5.5-4.1,12.2-6.6,19.1-7.1c8.1-0.5,16.5,1.9,22.6,7.2c3,2.7,5.5,6,7,9.8c1.5,3.7,2.1,7.9,1.6,11.9c-0.4,3.1-1.4,6.1-3,8.8
			c1.6-2.7,2.7-5.7,3.2-8.8c0.6-4,0-8.2-1.4-12c-1.5-3.8-3.9-7.3-7-10.1c-6.1-5.6-14.7-8.2-23-7.8h0c-7.1,0.4-14,2.8-19.8,7h0
			c-5.8,4.1-10.5,9.9-13.4,16.4c-2.9,6.5-4.2,13.8-3.7,21.1c0.5,7.2,2.6,14.3,6.2,20.6c7.1,12.5,19.6,21.8,33.8,25.8
			c13.8,3.9,29,2.9,42.9-2.2c10.5-3.8,20.2-10,28.4-18c8.2-8,14.9-17.9,19.1-29.1c3.9-10.5,5.5-21.9,4.7-33.5
			c-0.8-11.5-4.1-23.2-10.1-33.7c-4.4-7.7-10.2-14.8-17.1-20.8c-6.9-6-14.9-11-23.7-14.5c-8.3-3.3-17.2-5.3-26.3-5.9
			c-9.1-0.6-18.5,0.3-27.6,2.7c-8.6,2.3-16.9,5.8-24.7,10.7c-7.8,4.8-14.9,10.8-21.1,17.9c-5.8,6.7-10.7,14.3-14.6,22.5
			c-3.8,8.2-6.6,17.1-8.1,26.4c-1.9,11.9-1.6,24.2-0.4,36.4c1.2,11.9,3.2,23.7,4.8,35.8c2.5,18.4,3.9,37.5,4.1,57.3
			C192.5,233.4,191.4,253.8,188.9,274.6L188.9,274.6z"/>
		<path class="st0" d="M249,389.9c9.1-4.5,18.6-7.7,28.1-9.7c13-5.4,26.9-8.5,40.9-9.1c23.6-1,47.5,5.1,67.7,17.2
			c20.2,12.2,36.8,30.5,46.9,51.8c10.1,21.4,13.8,45.8,10.5,69.2c-2,13.5-6.2,26.7-13.5,38c-7.3,11.3-17.8,20.7-30.2,25.6
			c-12.4,4.9-26.8,5.1-38.8-0.5h0c-6-2.8-11.4-7-15.4-12.2h0c-4-5.2-6.7-11.5-7.6-17.9c-1.4-10.2,1.8-20.9,8.5-28.8
			c1.8-2.1,3.9-4.1,6.1-5.8c5.9-4.7,13.2-7.7,20.8-8.5c7.3-0.7,14.9,0.5,21.1,4.3h0c6.2,3.8,11.1,10.2,12.2,17.5
			c1,6.3-1,13.1-5.4,17.8c-2.2,2.4-5,4.2-8.1,5.3c-3.1,1.1-6.5,1.4-9.7,0.8c-6.1-1.1-11.7-5.4-14.3-11.2c-2.6-5.8-2.1-13,1.4-18.5
			c-3.6,5.4-4.3,12.6-1.8,18.6c2.5,6,8.1,10.6,14.5,11.9c3.4,0.7,7,0.5,10.2-0.6c3.3-1.1,6.3-2.9,8.7-5.4c4.8-4.9,7.1-12.1,6.2-19
			c-1-7.9-6-15-12.7-19.2c-6.7-4.2-14.8-5.8-22.6-5.2c-11.2,0.9-22,6.3-29.2,14.9c-7.3,8.6-10.8,20.3-9.4,31.5v0
			c1,7.1,3.9,14,8.3,19.7c4.4,5.7,10.2,10.3,16.7,13.3c13,6.1,28.4,6,41.8,0.8c13.3-5.2,24.4-15.1,32.2-27
			c7.7-11.9,12.3-25.6,14.3-39.6c3.6-24.2-0.1-49.5-10.6-71.7l0,0c-10.4-22.2-27.5-41.2-48.5-54c-21-12.8-45.8-19.2-70.4-18.2
			C293.3,367.1,269,375.5,249,389.9L249,389.9z"/>
	</g>
	<g transform="matrix(.81177 0 0 .74658 34.802 174.9)">
		<path class="st0" d="M497.9,44.9c3.3-1.5,6.5-3.3,9.7-5.3C515.3,27,520,12.8,521.2-1.7c1.5-17.8-2.2-35.8-10.3-51.4
			c-3.4-6.5-7.6-12.5-12.4-17.9c4.3,5.8,7.9,12.2,10.7,18.8c3.1,7.5,5.2,15.3,6.2,23.2c1.8,8.8,2.3,17.8,1.5,26.8
			C515.2,14.7,508.6,31.3,497.9,44.9L497.9,44.9z"/>
		<path class="st1" d="M525.2,6.9c0,0,17.4-18.5,25.1-39.3C556.6-12.9,539,3.7,525.2,6.9L525.2,6.9z"/>
		<path class="st1" d="M523.2,5.9c0,0,13.6-13.3,26.1-39.5C529.3-32,520.7-8,523.2,5.9z"/>
		<g transform="matrix(.88561 -.22799 .23014 .89398 -71.655 154.77)">
			<path class="st1" d="M679.4-50.3c0,0,17.4-18.5,25.1-39.3C710.9-70,693.2-53.4,679.4-50.3z"/>
			<path class="st1" d="M677.5-51.2c0,0,13.6-13.3,26.1-39.5C683.5-89.2,674.9-65.1,677.5-51.2z"/>
		</g>
		<g transform="matrix(.33772 -.59529 .55574 .3721 61.132 669.57)">
			<path class="st1" d="M1260.9,23.4c0,0,17.4-18.5,25.1-39.3C1292.3,3.7,1274.7,20.2,1260.9,23.4z"/>
			<path class="st1" d="M1258.9,22.5c0,0,13.6-13.3,26.1-39.5C1265-15.5,1256.3,8.5,1258.9,22.5z"/>
		</g>
		<g transform="matrix(-.80526 .44452 .44388 .80981 859.1 -210.15)">
			<path class="st1" d="M422.3-17.3c0,0,17.4-18.5,25.1-39.3C453.7-37.1,436.1-20.5,422.3-17.3z"/>
			<path class="st1" d="M420.3-18.3c0,0,13.6-13.3,26.1-39.5C426.4-56.2,417.8-32.2,420.3-18.3z"/>
		</g>
		<g transform="matrix(-1.2447 0 0 1 1397.1 12.526)">
			<path class="st1" d="M714,6.9c0,0,17.4-18.5,25.1-39.3C745.5-12.9,727.8,3.7,714,6.9L714,6.9z"/>
			<path class="st1" d="M712.1,5.9c0,0,13.6-13.3,26.1-39.5C718.2-32,709.5-8,712.1,5.9z"/>
		</g>
	</g>
	<g transform="matrix(.81177 0 0 .74658 46.521 269.37)">
		<path class="st1" d="M395.9-24.7c0,1.4-0.9,2.6-1.9,2.6s-1.9-1.2-1.9-2.6s0.9-2.6,1.9-2.6S395.9-26.1,395.9-24.7z"/>
		<path class="st1" d="M392.4-18c0.4,1.6-0.1,3.1-1.2,3.3c-1,0.3-2.2-0.8-2.6-2.4c-0.4-1.6,0.1-3.1,1.2-3.3
			C390.9-20.7,392-19.6,392.4-18L392.4-18z"/>
		<path class="st1" d="M400-17c-0.5,1.6-1.7,2.6-2.7,2.2s-1.4-1.9-0.9-3.4c0.5-1.6,1.7-2.6,2.7-2.2C400.1-20.1,400.5-18.5,400-17
			L400-17z"/>
	</g>
	<g transform="matrix(.81177 0 0 .74658 46.521 269.37)">
		<path class="st0" d="M406.1,105.3c6,0.9,12.2,1.5,18.4,1.9c28.2-6.2,55-18.2,78.6-34.6c28.5-19.8,52.3-46.2,68.3-76.6v0
			c3.4-6.4,6.4-13.1,9.1-19.8c-3,6.6-6.4,13-10.1,19.3C560,13.2,546.9,29.2,531.9,43c-9.6,9.6-20,18.3-31.2,26
			C472.6,88.2,440,101.1,406.1,105.3L406.1,105.3z"/>
		<g transform="matrix(.59224 .56209 -.57977 .58508 654.79 -119.36)">
			<path class="st1" d="M31.5,164.6c0,0,17.4-18.5,25.1-39.3C62.9,144.8,45.3,161.4,31.5,164.6z"/>
			<path class="st1" d="M29.5,163.6c0,0,13.6-13.3,26.1-39.5C35.6,125.7,27,149.7,29.5,163.6z"/>
		</g>
		<g transform="matrix(.68404 -.022396 -.027574 .66824 272.58 181.49)">
			<path class="st1" d="M441.1-291.5c0,0,17.4-18.5,25.1-39.3C472.5-311.3,454.9-294.7,441.1-291.5z"/>
			<path class="st1" d="M439.1-292.5c0,0,13.6-13.3,26.1-39.5C445.2-330.4,436.6-306.4,439.1-292.5z"/>
		</g>
		<g transform="matrix(-.76304 -.10925 -.10338 .77258 1213.1 187.61)">
			<path class="st1" d="M865.8-132.9c0,0,17.4-18.5,25.1-39.3C897.2-152.7,879.6-136.1,865.8-132.9z"/>
			<path class="st1" d="M863.8-133.9c0,0,13.6-13.3,26.1-39.5C869.9-171.8,861.3-147.8,863.8-133.9z"/>
		</g>
	</g>
	<g transform="matrix(.73784 -.31128 -.26148 -.52425 73.194 1388.7)">
		<path class="st0" d="M661,1442.4c6,0.9,12.2,1.5,18.4,1.9c28.2-6.2,55-18.2,78.6-34.6c28.5-19.8,52.3-46.2,68.3-76.6
			c3.4-6.4,6.4-13.1,9.1-19.8c-3,6.6-6.4,13-10.1,19.3c-10.4,17.7-23.5,33.7-38.5,47.5c-9.6,9.6-20,18.3-31.2,26
			C727.5,1425.3,694.9,1438.2,661,1442.4L661,1442.4z"/>
		<g transform="matrix(.59224 .56209 -.57977 .58508 654.79 -119.36)">
			<path class="st1" d="M1406.2,1129.2c0,0,17.4-18.5,25.1-39.3C1437.6,1109.5,1420,1126.1,1406.2,1129.2z"/>
			<path class="st1" d="M1404.2,1128.3c0,0,13.6-13.3,26.1-39.5C1410.3,1090.3,1401.6,1114.3,1404.2,1128.3z"/>
		</g>
		<g transform="matrix(.68404 -.022396 -.027574 .66824 272.58 181.49)">
			<path class="st1" d="M894.9,1724.7c0,0,17.4-18.5,25.1-39.3C926.4,1704.9,908.7,1721.5,894.9,1724.7z"/>
			<path class="st1" d="M893,1723.7c0,0,13.6-13.3,26.1-39.5C899,1685.7,890.4,1709.7,893,1723.7z"/>
		</g>
		<g transform="matrix(-.76304 -.10925 -.10338 .77258 1213.1 187.61)">
			<path class="st1" d="M308,1518.9c0,0,17.4-18.5,25.1-39.3C339.4,1499.1,321.8,1515.7,308,1518.9z"/>
			<path class="st1" d="M306,1518c0,0,13.6-13.3,26.1-39.5C312.1,1480,303.5,1504,306,1518z"/>
		</g>
	</g>
	<g transform="matrix(.75849 -.26601 .28924 .69758 -297.44 500.18)">
		<path class="st0" d="M622.6,106.6c6,0.9,12.2,1.5,18.4,1.9c28.2-6.2,55-18.2,78.6-34.5c28.5-19.8,52.3-46.2,68.3-76.6v0
			c3.4-6.4,6.4-13.1,9.1-19.8c-3,6.6-6.4,13-10.1,19.3c-10.4,17.7-23.5,33.7-38.5,47.5c-9.6,9.6-20,18.3-31.2,26
			C689.2,89.5,656.5,102.4,622.6,106.6L622.6,106.6z"/>
		<g transform="matrix(.59224 .56209 -.57977 .58508 654.79 -119.36)">
			<path class="st1" d="M221-15.3c0,0,17.4-18.5,25.1-39.3C252.4-35,234.8-18.5,221-15.3z"/>
			<path class="st1" d="M219-16.3c0,0,13.6-13.3,26.1-39.5C225.1-54.2,216.5-30.2,219-16.3z"/>
		</g>
		<g transform="matrix(.68404 -.022396 -.027574 .66824 272.58 181.49)">
			<path class="st1" d="M758.1-279c0,0,17.4-18.5,25.1-39.3C789.5-298.7,771.9-282.2,758.1-279z"/>
			<path class="st1" d="M756.1-279.9c0,0,13.6-13.3,26.1-39.5C762.2-317.9,753.6-293.9,756.1-279.9z"/>
		</g>
		<g transform="matrix(-.76304 -.10925 -.10338 .77258 1213.1 187.61)">
			<path class="st1" d="M587.2-170.7c0,0,17.4-18.5,25.1-39.3C618.6-190.4,601-173.8,587.2-170.7z"/>
			<path class="st1" d="M585.2-171.6c0,0,13.6-13.3,26.1-39.5C591.3-209.6,582.7-185.6,585.2-171.6z"/>
		</g>
	</g>
	<g transform="matrix(.054505 -.74489 .80994 .050128 -314.62 952.3)">
		<path class="st0" d="M1090.8,549.7c6,0.9,12.2,1.5,18.4,1.9c28.2-6.2,55-18.2,78.6-34.5c28.5-19.8,52.3-46.2,68.3-76.6v0
			c3.4-6.4,6.4-13.1,9.1-19.8c-3,6.6-6.4,13-10.1,19.3c-10.4,17.7-23.5,33.7-38.5,47.5c-9.6,9.6-20,18.3-31.2,26
			C1157.4,532.6,1124.7,545.5,1090.8,549.7L1090.8,549.7z"/>
		<g transform="matrix(.59224 .56209 -.57977 .58508 654.79 -119.36)">
			<path class="st1" d="M1010.5-16.4c0,0,17.4-18.5,25.1-39.3C1041.9-36.2,1024.3-19.6,1010.5-16.4z"/>
			<path class="st1" d="M1008.5-17.4c0,0,13.6-13.3,26.1-39.5C1014.6-55.3,1006-31.3,1008.5-17.4z"/>
		</g>
		<g transform="matrix(.68404 -.022396 -.027574 .66824 272.58 181.49)">
			<path class="st1" d="M1470.3,408c0,0,17.4-18.5,25.1-39.3C1501.7,388.2,1484.1,404.8,1470.3,408z"/>
			<path class="st1" d="M1468.3,407c0,0,13.6-13.3,26.1-39.5C1474.4,369.1,1465.7,393.1,1468.3,407z"/>
		</g>
		<g transform="matrix(-.76304 -.10925 -.10338 .77258 1213.1 187.61)">
			<path class="st1" d="M-91.2,306.9c0,0,17.4-18.5,25.1-39.3C-59.7,287.2-77.4,303.8-91.2,306.9z"/>
			<path class="st1" d="M-93.1,306c0,0,13.6-13.3,26.1-39.5C-87.1,268-95.7,292-93.1,306z"/>
		</g>
	</g>
	<g transform="matrix(.81072 -.038008 .041327 .74561 -113.08 209.5)">
		<path class="st1" d="M426-29.3c0,1.4-0.9,2.6-1.9,2.6s-1.9-1.2-1.9-2.6s0.9-2.6,1.9-2.6S426-30.7,426-29.3z"/>
		<path class="st1" d="M422.5-22.6c0.4,1.6-0.1,3.1-1.2,3.3c-1,0.3-2.2-0.8-2.6-2.4s0.1-3.1,1.2-3.3C421-25.3,422.1-24.2,422.5-22.6
			z"/>
		<path class="st1" d="M430.1-21.6c-0.5,1.6-1.7,2.6-2.7,2.2c-1-0.3-1.4-1.9-0.9-3.4c0.5-1.6,1.7-2.6,2.7-2.2
			C430.2-24.6,430.6-23.1,430.1-21.6L430.1-21.6z"/>
	</g>
	<g transform="matrix(.53428 .56208 -.61116 .49137 239.73 1.3173)">
		<path class="st1" d="M-11.3,255.3c0,1.4-0.9,2.6-1.9,2.6s-1.9-1.2-1.9-2.6c0-1.4,0.9-2.6,1.9-2.6S-11.3,253.8-11.3,255.3z"/>
		<path class="st1" d="M-14.8,261.9c0.4,1.6-0.1,3.1-1.2,3.3s-2.2-0.8-2.6-2.4c-0.4-1.6,0.1-3.1,1.2-3.3S-15.2,260.4-14.8,261.9z"/>
		<path class="st1" d="M-7.2,263c-0.5,1.6-1.7,2.6-2.7,2.2c-1-0.3-1.4-1.9-0.9-3.4c0.5-1.6,1.7-2.6,2.7-2.2
			C-7.1,259.9-6.6,261.4-7.2,263z"/>
	</g>
	<g transform="matrix(.65186 -.44494 .48379 .59951 -425.85 686.04)">
		<path class="st1" d="M767.2,28.8c0,1.4-0.9,2.6-1.9,2.6s-1.9-1.2-1.9-2.6s0.9-2.6,1.9-2.6S767.2,27.4,767.2,28.8z"/>
		<path class="st1" d="M763.7,35.5c0.4,1.6-0.1,3.1-1.2,3.3c-1,0.3-2.2-0.8-2.6-2.4s0.1-3.1,1.2-3.3
			C762.1,32.8,763.3,33.9,763.7,35.5z"/>
		<path class="st1" d="M771.3,36.5c-0.5,1.6-1.7,2.6-2.7,2.2c-1-0.3-1.4-1.9-0.9-3.4c0.5-1.6,1.7-2.6,2.7-2.2S771.8,35,771.3,36.5
			L771.3,36.5z"/>
	</g>
	<g transform="matrix(.75983 .26276 -.2857 .69881 422.26 24.514)">
		<path class="st1" d="M195.5,49.8c0,1.4-0.9,2.6-1.9,2.6s-1.9-1.2-1.9-2.6s0.9-2.6,1.9-2.6S195.5,48.4,195.5,49.8z"/>
		<path class="st1" d="M192,56.5c0.4,1.6-0.1,3.1-1.2,3.3c-1,0.3-2.2-0.8-2.6-2.4c-0.4-1.6,0.1-3.1,1.2-3.3
			C190.5,53.8,191.6,54.9,192,56.5z"/>
		<path class="st1" d="M199.6,57.5c-0.5,1.6-1.7,2.6-2.7,2.2s-1.4-1.9-0.9-3.4c0.5-1.6,1.7-2.6,2.7-2.2
			C199.7,54.4,200.1,56,199.6,57.5L199.6,57.5z"/>
	</g>
	<g transform="matrix(.81113 -.029496 .032072 .746 328.69 301.3)">
		<path class="st1" d="M419.2-28.4c0,1.4-0.8,2.6-1.9,2.6c-1.1,0-1.9-1.1-1.9-2.6c0,0,0,0,0,0c0-1.4,0.8-2.6,1.9-2.6
			C418.4-31,419.2-29.8,419.2-28.4C419.2-28.4,419.2-28.4,419.2-28.4z"/>
		<path class="st1" d="M415.7-21.7c0.2,1.6-0.5,3.1-1.6,3.3c-1,0.3-2-0.8-2.1-2.4s0.5-3.1,1.6-3.3S415.6-23.3,415.7-21.7z"/>
		<path class="st1" d="M423.4-20.7c-0.2,1.6-1.2,2.6-2.2,2.2c-1-0.3-1.7-1.9-1.4-3.4s1.2-2.6,2.2-2.2
			C422.9-23.7,423.6-22.2,423.4-20.7L423.4-20.7z"/>
	</g>
	<g transform="matrix(.76304 -.25478 .27702 .70176 347.24 448.66)">
		<path class="st1" d="M603-25.1c0,1.4-0.9,2.6-1.9,2.6s-1.9-1.2-1.9-2.6s0.9-2.6,1.9-2.6S603-26.5,603-25.1z"/>
		<path class="st1" d="M599.5-18.4c0.4,1.6-0.1,3.1-1.2,3.3c-1,0.3-2.2-0.8-2.6-2.4s0.1-3.1,1.2-3.3C597.9-21.1,599.1-20,599.5-18.4
			z"/>
		<path class="st1" d="M607.1-17.4c-0.5,1.6-1.7,2.6-2.7,2.2s-1.4-1.9-0.9-3.4c0.5-1.6,1.7-2.6,2.7-2.2S607.6-19,607.1-17.4
			L607.1-17.4z"/>
	</g>
	<g transform="matrix(.81172 .0083863 -.0091186 .74653 195.97 417.58)">
		<path class="st1" d="M389.3-23.5c0,1.4-0.9,2.6-1.9,2.6s-1.9-1.2-1.9-2.6c0-1.4,0.9-2.6,1.9-2.6C388.5-26.1,389.3-24.9,389.3-23.5
			z"/>
		<path class="st1" d="M385.8-16.8c0.4,1.6-0.1,3.1-1.2,3.3c-1,0.3-2.2-0.8-2.6-2.4c-0.4-1.6,0.1-3.1,1.2-3.3
			C384.3-19.5,385.4-18.4,385.8-16.8L385.8-16.8z"/>
		<path class="st1" d="M393.4-15.8c-0.5,1.6-1.7,2.6-2.7,2.2c-1-0.3-1.4-1.9-0.9-3.4c0.5-1.6,1.7-2.6,2.7-2.2
			C393.5-18.9,393.9-17.3,393.4-15.8z"/>
	</g>
	<g transform="matrix(-.79913 -.13124 .1427 -.73495 1142.7 1431.7)">
		<path class="st1" d="M707.1,1124.5c0,1.4-0.9,2.6-1.9,2.6s-1.9-1.2-1.9-2.6c0-1.4,0.9-2.6,1.9-2.6S707.1,1123.1,707.1,1124.5z"/>
		<path class="st1" d="M703.6,1131.2c0.4,1.6-0.1,3.1-1.2,3.3c-1,0.3-2.2-0.8-2.6-2.4c-0.4-1.6,0.1-3.1,1.2-3.3
			C702.1,1128.5,703.2,1129.6,703.6,1131.2z"/>
		<path class="st1" d="M711.2,1132.2c-0.5,1.6-1.7,2.6-2.7,2.2s-1.4-1.9-0.9-3.4c0.5-1.6,1.7-2.6,2.7-2.2
			C711.3,1129.1,711.7,1130.6,711.2,1132.2L711.2,1132.2z"/>
	</g>
	<g transform="matrix(-.80796 .072239 -.078547 -.74308 801.58 1332.4)">
		<path class="st1" d="M547.9,1159.4c0,1.4-0.9,2.6-1.9,2.6c-1.1,0-1.9-1.2-1.9-2.6c0-1.4,0.9-2.6,1.9-2.6
			C547.1,1156.8,547.9,1158,547.9,1159.4z"/>
		<path class="st1" d="M544.4,1166.1c0.4,1.6-0.1,3.1-1.2,3.3s-2.2-0.8-2.6-2.4c-0.4-1.6,0.1-3.1,1.2-3.3
			C542.9,1163.4,544,1164.5,544.4,1166.1L544.4,1166.1z"/>
		<path class="st1" d="M552,1167.1c-0.5,1.6-1.7,2.6-2.7,2.2c-1-0.3-1.4-1.9-0.9-3.4c0.5-1.6,1.7-2.6,2.7-2.2
			S552.5,1165.6,552,1167.1L552,1167.1z"/>
	</g>
	<g transform="matrix(.80904 -.06115 .066489 .74407 -256.2 587.09)">
		<path class="st1" d="M444.5-31.3c0,1.4-0.9,2.6-1.9,2.6s-1.9-1.2-1.9-2.6s0.9-2.6,1.9-2.6S444.5-32.7,444.5-31.3z"/>
		<path class="st1" d="M440.9-24.6c0.4,1.6-0.1,3.1-1.2,3.3c-1,0.3-2.2-0.8-2.6-2.4c-0.4-1.6,0.1-3.1,1.2-3.3
			C439.4-27.3,440.6-26.2,440.9-24.6L440.9-24.6z"/>
		<path class="st1" d="M448.6-23.6c-0.5,1.6-1.7,2.6-2.7,2.2c-1-0.3-1.4-1.9-0.9-3.4c0.5-1.6,1.7-2.6,2.7-2.2S449.1-25.1,448.6-23.6
			L448.6-23.6z"/>
	</g>
	<g transform="matrix(-.74203 .30274 .32918 .68244 573.24 395.98)">
		<path class="st0" d="M459.8,52.9c3.3-1.5,6.5-3.3,9.7-5.3c7.7-12.6,12.4-26.8,13.6-41.2c1.5-17.8-2.2-35.8-10.3-51.4
			c-3.4-6.5-7.6-12.5-12.4-17.9c4.3,5.8,7.9,12.2,10.6,18.8c3.1,7.5,5.2,15.3,6.2,23.2c1.8,8.8,2.3,17.8,1.5,26.8
			C477.1,22.8,470.4,39.4,459.8,52.9L459.8,52.9z"/>
		<path class="st1" d="M487,15c0,0,17.4-18.5,25.1-39.3C518.5-4.8,500.8,11.8,487,15L487,15z"/>
		<path class="st1" d="M485.1,14c0,0,13.6-13.3,26.1-39.5C491.1-23.9,482.5,0.1,485.1,14z"/>
		<g transform="matrix(.88561 -.22799 .23014 .89398 -71.655 154.77)">
			<path class="st1" d="M636.8-52.1c0,0,17.4-18.5,25.1-39.3C668.2-71.8,650.6-55.3,636.8-52.1z"/>
			<path class="st1" d="M634.8-53.1c0,0,13.6-13.3,26.1-39.5C640.9-91,632.3-67,634.8-53.1z"/>
		</g>
		<g transform="matrix(.33772 -.59529 .55574 .3721 61.132 669.57)">
			<path class="st1" d="M1219.9-20.4c0,0,17.4-18.5,25.1-39.3C1251.3-40.1,1233.7-23.5,1219.9-20.4z"/>
			<path class="st1" d="M1217.9-21.3c0,0,13.6-13.3,26.1-39.5C1224-59.3,1215.4-35.3,1217.9-21.3z"/>
		</g>
		<g transform="matrix(-.80526 .44452 .44388 .80981 859.1 -210.15)">
			<path class="st1" d="M462.9-29.6c0,0,17.4-18.5,25.1-39.3C494.3-49.4,476.7-32.8,462.9-29.6z"/>
			<path class="st1" d="M460.9-30.6c0,0,13.6-13.3,26.1-39.5C467-68.5,458.4-44.5,460.9-30.6z"/>
		</g>
		<g transform="matrix(-1.2447 0 0 1 1397.1 12.526)">
			<path class="st1" d="M744.7,15c0,0,17.4-18.5,25.1-39.3C776.1-4.8,758.5,11.8,744.7,15L744.7,15z"/>
			<path class="st1" d="M742.7,14c0,0,13.6-13.3,26.1-39.5C748.8-23.9,740.2,0.1,742.7,14z"/>
		</g>
	</g>
	<g transform="matrix(.42287 .53968 -.60039 .3801 719.92 432.88)">
		<path class="st0" d="M-8.1,344.7c3.3-1.5,6.5-3.3,9.7-5.3c7.7-12.6,12.4-26.8,13.6-41.2c1.5-17.8-2.2-35.8-10.3-51.4
			c-3.4-6.5-7.6-12.5-12.4-17.9c4.3,5.8,7.9,12.2,10.6,18.8c3.1,7.5,5.2,15.3,6.2,23.2c1.8,8.8,2.3,17.8,1.5,26.8
			C9.2,314.6,2.6,331.1-8.1,344.7L-8.1,344.7z"/>
		<path class="st1" d="M19.2,306.7c0,0,17.4-18.5,25.1-39.3C50.6,287,33,303.5,19.2,306.7z"/>
		<path class="st1" d="M17.2,305.7c0,0,13.6-13.3,26.1-39.5C23.3,267.8,14.7,291.8,17.2,305.7z"/>
		<g transform="matrix(.88561 -.22799 .23014 .89398 -71.655 154.77)">
			<path class="st1" d="M61.9,127.6c0,0,17.4-18.5,25.1-39.3C93.3,107.9,75.7,124.4,61.9,127.6z"/>
			<path class="st1" d="M59.9,126.6c0,0,13.6-13.3,26.1-39.5C66,88.7,57.3,112.7,59.9,126.6z"/>
		</g>
		<g transform="matrix(.33772 -.59529 .55574 .3721 61.132 669.57)">
			<path class="st1" d="M483.4-414.6c0,0,17.4-18.5,25.1-39.3C514.8-434.4,497.2-417.8,483.4-414.6z"/>
			<path class="st1" d="M481.4-415.6c0,0,13.6-13.3,26.1-39.5C487.5-453.5,478.9-429.5,481.4-415.6z"/>
		</g>
		<g transform="matrix(-.80526 .44452 .44388 .80981 859.1 -210.15)">
			<path class="st1" d="M1061.3,2.1c0,0,17.4-18.5,25.1-39.3C1092.8-17.6,1075.1-1.1,1061.3,2.1z"/>
			<path class="st1" d="M1059.4,1.1c0,0,13.6-13.3,26.1-39.5C1065.5-36.8,1056.8-12.8,1059.4,1.1z"/>
		</g>
		<g transform="matrix(-1.2447 0 0 1 1397.1 12.526)">
			<path class="st1" d="M1120.6,306.7c0,0,17.4-18.5,25.1-39.3C1152,287,1134.4,303.5,1120.6,306.7z"/>
			<path class="st1" d="M1118.6,305.7c0,0,13.6-13.3,26.1-39.5C1124.7,267.8,1116.1,291.8,1118.6,305.7z"/>
		</g>
	</g>
	<g transform="matrix(.79988 .13844 -.12732 .73564 443.1 100.58)">
		<path class="st0" d="M390.2,103.3c4.3-1.4,8.6-3.1,12.8-5.1c13.9-14.7,23.5-33.3,27.4-52.8c4.7-23.9,0.9-49.1-10.4-70.2
			c-3.4-6.4-7.5-12.5-12.2-18c4.3,5.8,8,12.1,10.9,18.7c5.3,11.6,8.2,24.2,8.9,36.8c1.2,10.6,0.7,21.3-1.4,31.8
			C421.5,67.1,408.6,88.4,390.2,103.3L390.2,103.3z"/>
		<path class="st1" d="M434.5,34.9c0,0,17.4-18.5,25.1-39.3C465.9,15.2,448.3,31.7,434.5,34.9z"/>
		<path class="st1" d="M432.5,34c0,0,13.6-13.3,26.1-39.5C438.6-4,430,20,432.5,34z"/>
		<g transform="matrix(.88561 -.22799 .23014 .89398 -71.655 154.77)">
			<path class="st1" d="M575.7-45.4c0,0,17.4-18.5,25.1-39.3C607.1-65.1,589.5-48.5,575.7-45.4z"/>
			<path class="st1" d="M573.7-46.3c0,0,13.6-13.3,26.1-39.5C579.8-84.3,571.2-60.3,573.7-46.3z"/>
		</g>
		<g transform="matrix(.33772 -.59529 .55574 .3721 61.132 669.57)">
			<path class="st1" d="M1152.7-74.2c0,0,17.4-18.5,25.1-39.3C1184.1-93.9,1166.5-77.4,1152.7-74.2z"/>
			<path class="st1" d="M1150.8-75.1c0,0,13.6-13.3,26.1-39.5C1156.9-113.1,1148.3-89.1,1150.8-75.1z"/>
		</g>
		<g transform="matrix(-.80526 .44452 .44388 .80981 859.1 -210.15)">
			<path class="st1" d="M523.4-38.2c0,0,17.4-18.5,25.1-39.3C554.9-58,537.2-41.4,523.4-38.2L523.4-38.2z"/>
			<path class="st1" d="M521.5-39.2c0,0,13.6-13.3,26.1-39.5C527.6-77.1,518.9-53.1,521.5-39.2z"/>
		</g>
		<g transform="matrix(-1.2447 0 0 1 1397.1 12.526)">
			<path class="st1" d="M787,34.9c0,0,17.4-18.5,25.1-39.3C818.4,15.2,800.8,31.7,787,34.9z"/>
			<path class="st1" d="M785,34c0,0,13.6-13.3,26.1-39.5C791.1-4,782.4,20,785,34z"/>
		</g>
	</g>
</g>
</svg>
