<?xml version="1.0" encoding="utf-8"?>
<!-- Generator: Adobe Illustrator 28.0.0, SVG Export Plug-In . SVG Version: 6.00 Build 0)  -->
<svg version="1.1" id="Layer_1" xmlns="http://www.w3.org/2000/svg" xmlns:xlink="http://www.w3.org/1999/xlink" x="0px" y="0px"
	 viewBox="0 0 986.2 396.9" style="enable-background:new 0 0 986.2 396.9;" xml:space="preserve">
<style type="text/css">
	.st0{fill:#DBBD5B;stroke:#DBBD5B;stroke-width:9.380000e-02;}
	.st1{fill:#0D0200;stroke:#0D0200;stroke-width:9.380000e-02;}
	.st2{fill:#DABC5A;stroke:#DABC5A;stroke-width:9.380000e-02;}
	.st3{fill:#D4BA7D;stroke:#D4BA7D;stroke-width:9.380000e-02;}
	.st4{fill:#0C0000;stroke:#0C0000;stroke-width:9.380000e-02;}
	.st5{fill:#D1BB7F;stroke:#D1BB7F;stroke-width:9.380000e-02;}
	.st6{fill:#0F0400;stroke:#0F0400;stroke-width:9.380000e-02;}
	.st7{fill:#B9A765;stroke:#B9A765;stroke-width:9.380000e-02;}
	.st8{fill:#D4B77C;stroke:#D4B77C;stroke-width:9.380000e-02;}
	.st9{fill:#0D0400;stroke:#0D0400;stroke-width:9.380000e-02;}
	.st10{fill:#F1DBB6;stroke:#F1DBB6;stroke-width:9.380000e-02;}
	.st11{fill:#D1BA73;stroke:#D1BA73;stroke-width:9.380000e-02;}
	.st12{fill:#100300;stroke:#100300;stroke-width:9.380000e-02;}
	.st13{fill:#CFBD7A;stroke:#CFBD7A;stroke-width:9.380000e-02;}
	.st14{fill:#D3BD67;stroke:#D3BD67;stroke-width:9.380000e-02;}
	.st15{fill:#DFC153;stroke:#DFC153;stroke-width:9.380000e-02;}
	.st16{fill:#D1BB7D;stroke:#D1BB7D;stroke-width:9.380000e-02;}
	.st17{fill:#D2BC79;stroke:#D2BC79;stroke-width:9.380000e-02;}
	.st18{fill:#D0BC7F;stroke:#D0BC7F;stroke-width:9.380000e-02;}
	.st19{fill:#040102;stroke:#040102;stroke-width:9.380000e-02;}
	.st20{fill:#D0BA77;stroke:#D0BA77;stroke-width:9.380000e-02;}
	.st21{fill:#010103;stroke:#010103;stroke-width:9.380000e-02;}
	.st22{fill:#010102;stroke:#010102;stroke-width:9.380000e-02;}
	.st23{fill:#100200;stroke:#100200;stroke-width:9.380000e-02;}
	.st24{fill:#020102;stroke:#020102;stroke-width:9.380000e-02;}
	.st25{fill:#D0BD79;stroke:#D0BD79;stroke-width:9.380000e-02;}
	.st26{fill:#D1BD76;stroke:#D1BD76;stroke-width:9.380000e-02;}
	.st27{fill:#D7BD63;stroke:#D7BD63;stroke-width:9.380000e-02;}
	.st28{fill:#C7BA6D;stroke:#C7BA6D;stroke-width:9.380000e-02;}
	.st29{fill:#DABC5C;stroke:#DABC5C;stroke-width:9.380000e-02;}
	.st30{fill:#D0BB7B;stroke:#D0BB7B;stroke-width:9.380000e-02;}
	.st31{fill:#CCB975;stroke:#CCB975;stroke-width:9.380000e-02;}
	.st32{fill:#D0C272;stroke:#D0C272;stroke-width:9.380000e-02;}
	.st33{fill:#CBBA7F;stroke:#CBBA7F;stroke-width:9.380000e-02;}
	.st34{fill:#010101;stroke:#010101;stroke-width:9.380000e-02;}
	.st35{fill:#020000;stroke:#020000;stroke-width:9.380000e-02;}
	.st36{fill:#CBB77C;stroke:#CBB77C;stroke-width:9.380000e-02;}
	.st37{fill:#0B0200;stroke:#0B0200;stroke-width:9.380000e-02;}
	.st38{fill:#D0C286;stroke:#D0C286;stroke-width:9.380000e-02;}
	.st39{fill:#D7C88C;stroke:#D7C88C;stroke-width:9.380000e-02;}
	.st40{fill:#D8BD53;stroke:#D8BD53;stroke-width:9.380000e-02;}
	.st41{fill:#D1C17C;stroke:#D1C17C;stroke-width:9.380000e-02;}
	.st42{fill:#D3BA71;stroke:#D3BA71;stroke-width:9.380000e-02;}
	.st43{fill:#DBBC57;stroke:#DBBC57;stroke-width:9.380000e-02;}
	.st44{fill:#D1E6BB;stroke:#D1E6BB;stroke-width:9.380000e-02;}
	.st45{fill:#837450;stroke:#837450;stroke-width:9.380000e-02;}
	.st46{fill:#D7C365;stroke:#D7C365;stroke-width:9.380000e-02;}
	.st47{fill:#D4BC67;stroke:#D4BC67;stroke-width:9.380000e-02;}
	.st48{fill:#C0AC74;stroke:#C0AC74;stroke-width:9.380000e-02;}
	.st49{fill:#0E0200;stroke:#0E0200;stroke-width:9.380000e-02;}
	.st50{fill:#D3BF80;stroke:#D3BF80;stroke-width:9.380000e-02;}
	.st51{fill:#D6BD61;stroke:#D6BD61;stroke-width:9.380000e-02;}
	.st52{fill:#CAB670;stroke:#CAB670;stroke-width:9.380000e-02;}
	.st53{fill:#D4B879;stroke:#D4B879;stroke-width:9.380000e-02;}
	.st54{fill:#110200;stroke:#110200;stroke-width:9.380000e-02;}
	.st55{fill:#D5BE60;stroke:#D5BE60;stroke-width:9.380000e-02;}
	.st56{fill:#0F0100;stroke:#0F0100;stroke-width:9.380000e-02;}
	.st57{fill:#CFC24F;stroke:#CFC24F;stroke-width:9.380000e-02;}
	.st58{fill:#CDC06E;stroke:#CDC06E;stroke-width:9.380000e-02;}
	.st59{fill:#D5BA75;stroke:#D5BA75;stroke-width:9.380000e-02;}
	.st60{fill:#D5BB70;stroke:#D5BB70;stroke-width:9.380000e-02;}
	.st61{fill:#0F0300;stroke:#0F0300;stroke-width:9.380000e-02;}
	.st62{fill:#D0BD85;stroke:#D0BD85;stroke-width:9.380000e-02;}
	.st63{fill:#0D0000;stroke:#0D0000;stroke-width:9.380000e-02;}
</style>
<g>
	<path class="st0" d="M72.5,73.3c279.2,0.1,558.4,0.1,837.6,0c1,4.5,0.4,9.1,0.5,13.6c0,15.3,0,30.7,0,46c0,3.7,0.4,7.5-0.2,11.2
		c-3.5,1.6-7.5,2.1-10.9,4c-13.2,6.4-24.4,17.7-29.8,31.4c-5.3,13.4-5.6,28.8-0.5,42.3c6.1,18.5,22.7,32.5,41.4,37
		c-0.1,23.6,0.1,47.2-0.1,70.8c-265.4,0.1-530.8,0-796.2,0.1c-14,0-28.1,0.1-42.1,0c-0.6-18.6,0-37.1-0.2-55.7c0.1-5-0.2-10,0.1-15
		c1.4-1.2,3.4-1.5,5-2.2c22.2-8.1,38.5-30.9,37.9-54.7c0.6-14.9-5.5-29.5-15.3-40.5c-7.2-7.4-16-13.2-25.8-16.2
		c-2.2-0.3-1.9-2.7-1.9-4.3c0.1-18.3,0-36.7,0-55C71.9,81.7,71.8,77.5,72.5,73.3 M154.6,97.6c0.1,69.2,0.1,138.5,0,207.7
		c224.5,0.1,449-0.1,673.5,0.1c0.1-69.3,0-138.5,0-207.8C603.6,97.6,379.1,97.6,154.6,97.6z"/>
	<path class="st1" d="M154.6,97.6c224.5,0,449,0,673.5,0c0,69.3,0.1,138.5,0,207.8c-224.5-0.2-449,0-673.5-0.1
		C154.6,236.1,154.6,166.9,154.6,97.6 M157.1,100.4l0.4,0c0,67.4-0.1,134.8,0.1,202.1c222.6,0.1,445.3,0,667.9,0
		c-0.1-62.6,0-125.2,0-187.7c-0.1-4.9,0.3-9.8-0.4-14.6l0-0.1c-53.9,0.4-107.9,0.1-161.8,0.2C494.5,100.4,325.8,100.3,157.1,100.4z"
		/>
	<path class="st1" d="M183.8,194.8c7.3,3,13.2,8.6,19.8,12.8c0,1.3,0,2.7,0.1,4c-5.7,0.1-11.4,0-17.1,0.1c0,0.7,0,2.1,0,2.8v1
		c-1,0-2,0-3,0c0-1.3,0-2.6,0-3.8c-2.5,0-5-0.1-7.6-0.1c0-1.1,0-2.3,0-3.4c2.5,0,5-0.1,7.5,0C183.6,203.7,183.6,199.2,183.8,194.8
		 M186.6,199.4c0,2.9,0,5.7-0.1,8.6c4.2,0.1,8.5,0.1,12.8,0.1C195,205.3,190.9,202.3,186.6,199.4z"/>
	<path class="st2" d="M157.1,100.4c168.7-0.2,337.5,0,506.2-0.1c53.9-0.1,107.9,0.2,161.8-0.2l0,0.1c-1,2.8-1.8,5.7-1.8,8.7
		c0.5,27.3,0.1,54.6,0.3,82c-0.1,26,0,51.9,0,77.9c-0.1,10.2,0.4,20.5-1.2,30.6c-7.2,1.5-14.6,1.4-22,1.5c-200,0-400,0-600,0
		c-13.6,0.3-27.1-0.3-40.6-0.5c-0.5-8.9-0.6-17.8-0.6-26.6c0-52,0-104,0-156c-0.1-5.2-0.1-10.4,0.4-15.6c3.7-0.2,7.3-0.4,10.9-0.9
		c-4.3-0.4-8.7-0.7-13.1-1L157.1,100.4 M780.7,139.5c0.7-0.1,2.2-0.3,2.9-0.3l0.2,0.4c0.4-1.1,0.8-2.2,1.2-3.3
		c6.2-1.5,12.7-0.7,19-0.8c0.4-0.3,1.1-1.1,1.5-1.4H805c0-0.9,0.1-2.8,0.1-3.7c-9.2,0.1-18.4,0.1-27.6,0
		C777.2,133.8,779.1,136.7,780.7,139.5 M199.7,131.8c-0.8,3.5-1.4,7.1-0.8,10.8c-0.9,0.3-1.8,0.7-2.7,1c-1.1-0.6-2.2-1.1-3.3-1.7
		l1.8,0c-3.7-3.4-8.4-5.2-12.7-7.7c-2.5-1.4-6.7-2.4-8.2,0.8c0.2,1.4,0.6,2.8,1,4.1c9.5,4.3,18.4,10,28.6,12.4
		c2.1-0.5,3-2.7,2.6-4.7c-0.5-4.8,0.7-9.9-1.5-14.3C203.6,130.6,201.3,131.8,199.7,131.8 M794.6,143.3c-0.7,1.2-1.2,2.5-1.8,3.7
		c-2.2-0.4-4.1-1.5-5.9-2.8c-2,3.4-5.9,2.8-9.2,2.3c-0.3,0.7-0.7,1.4-1,2.2l1,0c0,1.5,0,3,0,4.4l-1.2-0.7c1.6,6.8,9.8,6.9,13.7,11.7
		c-2.5,0.8-5.2,0.9-7.8,0.7c-2.8,3.9-8,6.8-8.2,12.1c1.2,2.9,2.8,7.4,6.7,6.9c4.6,2.6,11.3,2.1,14-2.9c2.6,0.2,2.6-2.5,3.3-4.3
		c2.7,1.9,1.3,6.3,4.5,7.9c1,0.6,2.2,1.4,3.5,1.1c2.8-4.1,1.9-11.2-3.3-12.8c-0.8-0.9-1.7-1.8-2.7-2.6c-0.6-2.7-2.1-5.6-0.8-8.4
		c0.9-2.2,0.5-4.6,0.1-6.9c0.6-0.9,1.3-1.8,2-2.7c1.2,0,2.5,0,3.7,0c0-1.2,0-2.5,0-3.7l-0.3,0c-1.3-0.7-2.6-1.4-3.9-2.2
		C799.9,144,797.2,142,794.6,143.3 M175.1,156.2c-0.2,3.3-2.1,7.1,0.7,9.8c1.9,4.7,8,7.7,12.4,4.2c1-0.2,2-0.5,3-0.7
		c3.8,2.3,9.4,2.8,12.5-0.9c2.2-2.6,2.1-6,1.9-9.2c-1.6-1.9-2.9-4.4-5.2-5.6c-3.3-1.2-6.8,0.6-10.1,0.4c-2.6-0.7-5-2.4-7.7-2.7
		C179.6,152.2,177.2,154.2,175.1,156.2 M346.3,164.9c-4.7,1.1-10.7-0.8-14,3.7c0.1,5.4,1.6,11.1-0.3,16.3c-0.9-0.9-1.8-1.9-2.7-2.8
		c-4.4,0.4-8.8,0.8-13.1,1.5c-3.6,1.8-7.2,4.4-8.7,8.3c-3.9,9.7-5.9,21.3-1.3,31.1c0.1-0.6,0.2-1.8,0.3-2.4
		c1.6,6.1,4.4,13.1,10.9,15.4c4.9,1.7,11.1,1.6,15.3-1.9c-0.2,0.5-0.7,1.4-1,1.9c5.5,1,11.1,2.1,16.7,2.3c3,0.1,6.3-0.9,7.6-3.8
		c0-3.9-0.9-7.7-0.8-11.6c0.1-13.4-0.1-26.7,0-40.1c-0.1-5.5,2.6-11.4-0.1-16.6C353.1,163,349.1,164.3,346.3,164.9 M451,164.5
		c-2.9,1.3-4.9,4.3-5.6,7.3c0.2,2.3,1.1,4.6,2.4,6.5c2.7,1.5,5.6,2.3,8.3,3.7c-2.8,0.8-5.7,0.9-8.5,1.3c-1.7,0.8-1.6,3-1.7,4.5
		c-0.3,15.7,0.5,31.4-0.4,47.1c0.5,0.3,1.5,0.8,2,1.1l0.4,0c4.1,2.4,9,1.3,13.5,1.8c3.6,0.7,8.6-2.1,7.3-6.3
		c-1.7-6.8-1.5-13.8-1.4-20.7c0.2-6.6-0.7-13.3,0.9-19.8c2.2,0.9,4.5,1.8,6.8,2.5c1,7.7,0.4,15.5,0.5,23.3
		c0.2,5.7-0.8,11.8,1.7,17.2c3.6,3.5,9,5,14,4.4c3.5-0.4,7.9,0.8,10.4-2.4c1.9-2.2,6-5.1,3.7-8.3c-1.5-2.9-5.2-1-7.6-0.9
		c0.9-11-0.2-22.1,0.6-33.1c1.9-0.1,3.9-0.2,5.8-0.3c1.2-2.5,3.6-6.6-0.3-7.9v-0.2c0.1-0.4,0.4-1.1,0.6-1.4c-2.1-1-4.5-0.9-6.7-1.4
		c-1.1-4.2,3.4-10.4-1.7-13v-0.4c-0.2,0.1-0.6,0.3-0.8,0.4c-4-2.4-7.3,1.8-11,2.8c-2.8,1.2-6.7,1-8.4,3.9c-0.5,2-0.5,4.1-0.7,6.2
		c-2.3,1.4-4.5,2.9-6.5,4.6c-0.8-0.7-1.5-1.5-2.3-2.2l0-0.9c0-0.5,0-1.4,0-1.9c-3,0.3-6,0.8-9,0.8c3.2-3.4,10-3.3,10.2-9
		c1-3.4-0.8-6.4-3.4-8.5c0-0.3-0.1-0.9-0.2-1.2C459.5,164.1,455.2,163.5,451,164.5 M546.2,172.9c-2.6,3.3-3.8,7.4-6,10.9
		c-2.1,3.3-1.6,7.4-2,11.1c-0.8,6.8-0.4,13.6,0.8,20.3c0.7,4.1,3,7.6,4.8,11.3c2.9,5.9,9.1,9.3,15.2,10.8c7,1.7,14.6,2.4,21.4-0.3
		c3.3-1.3,6.8-2.3,10-3.9c4.4-2.2,5.9-7.3,7.9-11.4c3.9-8.1,2.5-17.2,2.9-25.9c0.4-6.7-2.2-13-5-18.9c-3-4.6-7.5-10-13.6-8.5
		c-1.5-0.6-3-1.1-4.5-1.4c0.6-0.1,1.9-0.3,2.5-0.4c-2.3-1.1-4.7-1.9-7.2-2.1C563.7,163.9,553.4,166.2,546.2,172.9 M279.3,165.8
		c-4.2,0.6-8.5-0.3-12.7,0.6c-5.1,3.8-3.8,11-6.9,16c-1.9,3-1.2,6.8-2.2,10.1c-1.2,3.6-2.1,7.4-3.9,10.8c-0.5,3.3-1,6.7-2.2,9.8
		c-1.2,3.6-3.2,7.6-1.4,11.4c-0.1,0.4-0.4,1.3-0.5,1.7c-0.5-0.3-1.6-0.8-2.1-1c-1.6,3.9-2.7,8.1-1.7,12.3c3.3,0.6,6.9,2,10,0.1
		c2.2-4.2,2.4-9.2,5-13.2c5.3-2.6,11.7-1.5,17.4-1.3c-0.1,5.2,2.6,9.6,4.7,14.2c0.1-0.4,0.2-1.1,0.3-1.5c6.8,0.3,13.5,0.1,20.3,0.1
		c-1.5-5.7-3.2-11.4-4.7-17.1c0.4-2.1,0.9-4.4,0-6.5c-1.5-4.2-2-8.8-3.7-12.9c-1.8-4.4-2-9.2-3.4-13.6c-1.2-3.9-2.7-7.6-3.2-11.7
		c-0.5-3-0.9-6.6-3.8-8.4C282.9,165.1,281.1,165.7,279.3,165.8 M174.2,182.8c-0.6,5.8,4.6,10.2,9.6,12c-0.2,4.4-0.2,8.9-0.1,13.3
		c-2.5,0-5,0-7.5,0c0,1.1,0,2.3,0,3.4c2.5,0.1,5,0.1,7.6,0.1c0,1.3,0,2.5,0,3.8c1,0,2,0,3,0v-1c5-0.9,10.1-1.3,15.1-0.3
		c3.6,0.9,5.5-4,5-6.8c-1.9-2.2-4.7-3.3-7-4.9c-4.4-2.4-8-5.9-12.3-8.4c1.7-0.9,3.8-1.6,5-3.2c2-2.6,2.5-5.9,3.9-8.7
		c1,0.7,1.9,1.6,2.9,2.5c-1.5,2-1.1,4.4-0.4,6.7c1.9,0.2,4.5,1.9,5.7-0.3c2-4.3,2.4-9.9-0.5-13.9l-0.1,1.2
		c-4.4-0.7-8.9-1.1-13.3-1.9c-0.1,3.1,0.4,6.5-1.2,9.3c-2.2,3.7-8.4,2.9-10.1-0.9c-1.2-3.1,0.1-6.2,0.8-9.2
		c-1.1-0.2-2.3-0.3-3.4-0.5l-0.2,1l0.1-1.7C173.8,176.2,174.4,179.9,174.2,182.8 M364.3,183.9c-3,0.3-2.8,3.8-2.9,6
		c0,10.7,0.2,21.4-0.1,32.1c-0.7,4.7-0.4,9.5,0.5,14.2c1.4,0.3,2.8,0.7,4.1,1c0.2,0.6,0.6,1.9,0.8,2.6c3.5-0.4,6.9-1.3,10.4-1.3
		c1.9-0.1,3.9,0,5.5-1.3c3.1-5.7,0.3-12.3,0.6-18.4c0.1-7.9-1-17.1,5.2-23.2c1,2.3,1.5,4.7,0.9,7.2c-1.2,6,0.8,12,0.2,18
		c-0.2,5.4-2.1,11.3,0.7,16.2c2.1,1.9,5.3,1.6,7.5,0c1.8-0.1,3.5-0.1,5.3-0.1c0,0.5-0.1,1.4-0.1,1.9c1.6,0.4,3.3,0.7,5,0.7
		c0.2-1.3,0.4-2.5,0.6-3.8l1,0c2.5-0.3,2.7-3.2,2.5-5.2c-1.2-8.9-0.6-17.9-0.5-26.8c-0.3-3.8,3.2-5.7,6-7.2c1,7.7-0.1,15.4,0.2,23.2
		c0.3,4.9-1.1,9.8-0.7,14.7c0.8,3.2,4.8,3.5,7.5,3.3c4.1-0.4,8.7,0.5,12.4-1.9l0.4,0c0.1-13.4,0-26.8,0-40.3c0-4.8-2.8-9.7-7.6-10.9
		c-7.5-2.5-15.6,1-20.3,7c-1.7-2.8-3.2-6.3-6.6-7.1c-5-1.3-10.6-0.7-15,2.1c-1.2-0.6-2.4-1.1-3.6-1.6c-0.3-1-0.7-2-1-3
		C376.7,181.8,370.4,182.6,364.3,183.9 M609.6,182.2c-0.9,1.1-1.9,2.1-2.8,3.2c-2.5,2.6-0.9,6.4-0.8,9.5c1.3,8-0.7,15.9-0.5,23.9
		c-0.2,5.4,1.3,11.1-1.1,16.2c1.7,0.9,3.4,1.9,5,2.8c5.4-0.5,10.7,0.3,16.1,0.4c0.3-0.6,0.9-1.8,1.2-2.4
		c-0.1-10.1-0.3-20.1,0.1-30.2c1.8,10.1,0,20.2,0.6,30.3c0.9-0.9,1.8-1.8,2.8-2.8c-3.2-4.3-0.7-9.6-1-14.4
		c0.3-5.4-1.4-11.1,0.7-16.3c0.7-2.6,2.2-5,4.2-6.8c0.7,2,1.4,4.1,1.4,6.2c0.1,9-0.3,18-0.3,27c-0.7,1.6-1.3,3.2-1.8,4.9
		c0.5,2.1,2.7,1.9,4.3,2l0,0.4c4.5,2.5,9.8,1.8,14.8,2.5c3.8,1.1,5.8-3.6,5.5-6.7c-0.5-9.6-0.7-19.3-0.4-28.9
		c-0.1-5.4,1.2-11.4-2.2-16.2c-2.2-4.3-7.6-4.2-11.8-4.3c-3.8,0.1-8.1-0.1-11.1,2.6c-1.2,0.9-2.9,2.6-4.4,1.1
		c-0.8-1.3-1.3-2.7-2.1-4C620.5,180.9,615,184,609.6,182.2 M684.3,182.4c-7.2,0.4-13.8,4.6-17.8,10.4c-3.2,6.5-4,13.8-4.5,21
		c0,4,1.4,7.9,2.8,11.7c2.2,6,7.7,10.5,13.9,11.8c5.1,1,10.4,2.8,15.7,1.6c5.4-0.9,10.5-3.7,13.9-8c2.3-3.4,4-8,2.1-12
		c-1.5-2-4.5-2-6.6-1.1c-0.4-0.1-1.2-0.3-1.7-0.5c0,0.7,0,2.1,0.1,2.7c-0.3-0.6-1-1.8-1.3-2.4c-0.3,2.6-0.3,5.3-0.9,7.9
		c-2.1,3.3-6.7,5.7-10.5,4c-3-4.2-3.4-9.6-5.2-14.3c2.2-1.1,4.6-1.8,7.1-1.6c6.3,0.4,12.6-0.1,19-0.3c2-6.6-0.5-13.3-1.8-19.7
		C704.6,184.6,693.5,181.2,684.3,182.4 M792.5,190.6c-5.5-0.3-11.1-0.6-16.5,0.6c0.4,0.1,1.3,0.3,1.7,0.4c0,1.5,0,3.1,0,4.6
		c5.9,4,11.8,7.9,17.5,12.2c-2.2,1.6-4.7,2.8-6.9,4.4c-1.6,2.6-1.6,5.8-2.5,8.6c-0.3,0.1-0.9,0.2-1.2,0.2c-3.7-2.2-1.7-6.9-1.5-10.3
		c-2.3-0.4-4.7-0.8-7-1.1c-0.6,5-1.9,10.2-0.4,15.1c0.5,0.1,1.5,0.1,2,0.2c4.4,0.2,8.7,1.1,13.2,1.4c0-3.1-0.6-6.6,1.3-9.3
		c2.3-3.2,7.9-2.6,9.6,0.9c1.6,3,0.3,6.4-0.4,9.4c0.9,0.2,1.9,0.5,2.8,0.7c0.4-1.1,0.9-2.2,1.3-3.3c0.2,0.5,0.5,1.4,0.6,1.9
		c0.9-4.5,1.7-9.8-1.3-13.6c-1.5-2.3-4.6-2.3-7-2.9c0.7-2.9,1-5.9,1-8.9c0.1-1.5-0.2-3.3,1.3-4.2c2-0.8,4.2-0.7,6.3-1
		c0-1.8,0-3.6-0.3-5.3c-3.5-1-7-1.9-9.7-4.5C793.6,184.9,793,188.8,792.5,190.6 M176.2,217.9c1.1,1.2,2.2,2.4,3.3,3.6
		c-0.1,0.7-0.2,2-0.3,2.6c-0.1-0.4-0.2-1.3-0.3-1.8c-0.9-0.8-1.9-1.5-2.8-2.3c-1,4.6,0.9,9.4,4.2,12.6c0.3,2,0.7,4.1,1.3,6.1
		c-0.2,0.1-0.6,0.2-0.8,0.3c2,2.9,0.6,6.7,1,10c-1.7,0.5-3.5,1.1-5,2.1c-1,0.4-0.5,2.5-0.9,3.5c2.6,0.1,5.2,0.2,7.7,0.3
		c0,1.2,0,2.5-0.1,3.7c1-0.3,3.3,0.6,2.9-1.2c0.6,0.5,1.7,1.5,2.3,2c2-0.7,3.9-1.6,5.8-2.4c3.2-1.6,7.3,1.9,10.2-0.7
		c1.8-1.3,2.5-3.5,3.3-5.4c-1.9-1.8-4.3-4.4-6.8-1.8l-0.1-0.1c-0.5-1.4-0.5-3.4-2.1-3.9c-3.1-1.7-6.1-3.7-8.7-6.1
		c4.4-1.4,9.9-1.1,13.2-5c2.4-2.9,3.5-7.2,2.4-10.9c-0.3-1.3-3.1-2.4-2.7-0.2c-2.8-4.4-8.9-6.5-13.6-3.8c-3.2,1.6-4.3,5.5-3.8,8.8
		C180.1,227.4,182,218.7,176.2,217.9 M790.3,232.6c-3.3-0.2-6.4-1.7-9.7-1.3c-2.2,1.8-3.9,4.1-5.5,6.4c-1.8,2.2-0.7,5.2-0.5,7.7
		c2.3,1.8,4.5,3.8,7.1,5.2c2.2,1.2,4.5-0.3,6.7-0.7c2-0.7,4.1-0.2,6.1,0c2.2,0.7,4.5,0.6,6.7,0.3c3.2-0.3,6.5-2.7,6.5-6.2
		c0.5-5.6-2.5-12.6-8.6-13.6C795.9,229.8,793.3,232,790.3,232.6 M773,257c2.1,5.4,1.6,11.4,3.7,16.9c1.7-0.5,3.4-0.9,5-1.7
		c1-2.1,1.5-4.3,2.1-6.5c-0.5-1.5-1.1-3-1.6-4.6c1.5-0.1,3-0.3,4.5-0.4c6.1,3.1,12.3,6,18.4,9c0-1.3,0.1-2.6,0.2-3.9
		c-7.6-3.7-15.3-7.3-22.9-11c-1.4-0.8-3.1-0.9-4.6-1.1c0-0.5,0-1.5,0-2C776,253.4,774.4,255.1,773,257 M193.4,268.2
		c-5.3-1.1-10.6-0.1-15.9,0.1c-1.4,0.4-3.9,0.6-3.8,2.5c-0.6,3.5,4.2,3.7,6.6,3.7c8.6-0.4,17.4,0.9,25.9-1
		c-0.4-4.2-2.1-8.1-4.1-11.8C198.1,262.3,195.8,265.4,193.4,268.2z"/>
	<path class="st2" d="M263.9,207.8c2.2-6,2.2-13,6.1-18.3c2,5.2,2.2,11,4.9,15.9c1.3,2.7,1.8,5.7,2.5,8.7c-5.5-0.1-11-0.1-16.5,0
		c0.7-2.5,1.4-5,2.2-7.5l0.3,0.6C263.6,207.3,263.8,207.6,263.9,207.8z"/>
	<path class="st3" d="M157.4,100.5c4.4,0.3,8.7,0.5,13.1,1c-3.6,0.5-7.3,0.8-10.9,0.9c-0.5,5.2-0.5,10.4-0.4,15.6c0,52,0,104,0,156
		c0,8.9,0,17.8,0.6,26.6c13.5,0.1,27.1,0.8,40.6,0.5c200,0,400-0.1,600,0c7.3-0.1,14.8,0,22-1.5c1.6-10.1,1.1-20.4,1.2-30.6
		c0-26-0.1-51.9,0-77.9c-0.2-27.3,0.3-54.6-0.3-82c0-3,0.8-5.9,1.8-8.7c0.7,4.8,0.3,9.7,0.4,14.6c0,62.6-0.1,125.2,0,187.7
		c-222.6,0-445.3,0.1-667.9,0C157.3,235.2,157.4,167.8,157.4,100.5z"/>
	<path class="st4" d="M780.7,139.5c-1.6-2.8-3.5-5.7-3.2-9.2c9.2,0.1,18.4,0.1,27.6,0c0,0.9-0.1,2.8-0.1,3.7
		c-7.9-0.1-15.9-0.1-23.8,0c0.8,1.7,1.6,3.4,2.4,5.1C782.9,139.3,781.4,139.4,780.7,139.5z"/>
	<path class="st5" d="M199.7,131.8c1.6,0,3.9-1.3,4.8,0.8c2.2,4.4,1,9.5,1.5,14.3c0.4,2-0.5,4.2-2.6,4.7
		c-10.2-2.4-19.1-8.2-28.6-12.4c-0.4-1.4-0.8-2.7-1-4.1c1.5-3.2,5.8-2.2,8.2-0.8c4.3,2.5,9,4.3,12.7,7.7l-1.8,0
		c-5.7-2.6-11.1-5.6-16.9-8c0.1,1,0.2,3,0.2,4c9.2,3.9,17.8,9.2,27.3,12.2c0.1-5.9,0-11.9,0.1-17.8c-0.8,0-2.5,0-3.3,0
		c0,4.4,0,8.9-0.1,13.4c-1.4-0.7-2.8-1.4-4.2-2.1c0.9-0.4,1.8-0.7,2.7-1C198.3,139,198.9,135.4,199.7,131.8z"/>
	<path class="st6" d="M200.4,132.4c0.8,0,2.5,0,3.3,0c-0.1,5.9,0,11.9-0.1,17.8c-9.6-3-18.1-8.3-27.3-12.2c-0.1-1-0.2-3-0.2-4
		c5.8,2.4,11.2,5.5,16.9,8c1.1,0.5,2.2,1.1,3.3,1.6c1.4,0.7,2.8,1.4,4.2,2.1C200.4,141.3,200.4,136.8,200.4,132.4z"/>
	<path class="st7" d="M781.2,134c7.9-0.1,15.9-0.1,23.8,0h0.5c-0.4,0.3-1.1,1.1-1.5,1.4c-6.3,0.1-12.8-0.7-19,0.8
		c-0.4,1.1-0.8,2.2-1.2,3.3l-0.2-0.4C782.8,137.5,782,135.7,781.2,134z"/>
	<path class="st8" d="M794.6,143.3c2.5-1.2,5.3,0.8,6.2,3.1c1.3,0.7,2.6,1.4,3.9,2.2c-2.4,0.1-4.8,0.1-7.1,0.1
		c0-0.9,0.1-2.8,0.1-3.7c-1,0-2-0.1-3.1-0.1c0,1.3-0.1,2.6-0.1,3.9c-5.7,0-11.3,0-16.9-0.1l-1,0c0.3-0.7,0.7-1.4,1-2.2
		c3.3,0.5,7.3,1.1,9.2-2.3c1.8,1.3,3.8,2.3,5.9,2.8C793.4,145.7,793.9,144.4,794.6,143.3z"/>
	<path class="st9" d="M794.6,144.9c1,0,2,0.1,3.1,0.1c0,0.9-0.1,2.8-0.1,3.7c2.4,0,4.8,0,7.1-0.1l0.3,0c0,1.2,0,2.5,0,3.7
		c-1.2,0-2.5,0-3.7,0c-1.3,0-2.6,0-3.9,0.1c0.1,4.4,0.1,8.8,0,13.3c-7.4-2.8-13-8.8-19.9-12.4c0-1.5,0-3,0-4.4
		c5.6,0,11.3,0.1,16.9,0.1C794.5,147.5,794.6,146.2,794.6,144.9 M781.4,152.4c4.7,2.4,8.7,5.8,13.1,8.5c0-2.9,0.1-5.7,0.1-8.5
		C790.2,152.2,785.8,152.2,781.4,152.4z"/>
	<path class="st10" d="M175.1,156.2c2.1-2.1,4.5-4,7.4-4.6c2.7,0.3,5.1,2,7.7,2.7c3.4,0.2,6.8-1.6,10.1-0.4c2.3,1.2,3.6,3.7,5.2,5.6
		c0.2,3.2,0.4,6.6-1.9,9.2c-3.1,3.7-8.7,3.2-12.5,0.9c-1,0.2-2,0.5-3,0.7c0.9-1.1,1.8-2.2,2.6-3.3c1.8,2.6,4.6,4.6,8,3.8
		c4-0.4,4.9-4.7,5.9-7.8c-1-3.3-1.9-7.7-5.8-8.6c-3.3-1.1-6.5,0.6-8.3,3.4c-2.1-2.9-5.1-5.5-9-4.5c-5.8,1-6.7,8.1-5.8,12.8
		C173,163.3,174.9,159.5,175.1,156.2z"/>
	<path class="st10" d="M194.6,158.2c2.2-0.2,4.4,0.2,6.3,1.3c0,2.4,1.1,5.9-1.9,7c-2.8,1.1-5.2-0.4-6.9-2.6
		C192.5,161.8,193.3,159.9,194.6,158.2 M195,158.9c-0.5,1.8-1.1,3.5-1.6,5.3c2.2,1.3,4.7,1.7,6.9,0.2
		C200.4,161.1,198.3,158.8,195,158.9z"/>
	<path class="st10" d="M263.5,207.1c1.2-7.9,4.3-15.4,6.1-23.1c1.2,7.3,4,14.2,5.3,21.4c-2.8-4.9-2.9-10.7-4.9-15.9
		c-3.9,5.4-3.9,12.3-6.1,18.3C263.8,207.6,263.6,207.3,263.5,207.1z"/>
	<path class="st10" d="M780.9,237.7c1.2-0.4,2.4-0.9,3.6-1.3c1.7,0.8,3.6,1.7,4.3,3.6c0.5,2.1-1.3,3.8-2.3,5.5
		c-2.1,0.3-4.1,0.1-5.9-1C780,242.2,780,239.9,780.9,237.7 M781.1,241.9c0.1,2.9,4.7,3.8,5.9,1.1c0.5-2.5-1.3-4.5-2.7-6.3
		C782.8,238.1,780.2,239.4,781.1,241.9z"/>
	<path class="st11" d="M781.4,152.4c4.4-0.1,8.8-0.2,13.2,0c0,2.8-0.1,5.7-0.1,8.5C790.1,158.1,786.1,154.7,781.4,152.4z"/>
	<path class="st12" d="M181.7,153.2c3.8-1,6.9,1.6,9,4.5c1.8-2.7,5-4.4,8.3-3.4c3.9,0.9,4.9,5.3,5.8,8.6c-1.1,3.1-2,7.4-5.9,7.8
		c-3.3,0.9-6.2-1.2-8-3.8c-0.9,1.1-1.7,2.3-2.6,3.3c-4.4,3.5-10.5,0.5-12.4-4.2C175,161.2,175.9,154.2,181.7,153.2 M181.7,157.4
		c-4.2,1.4-4.4,8.5-0.2,10.1c4.4,2.1,10.1-4.7,6.4-8.3C186.4,157.4,183.9,156.4,181.7,157.4 M194.6,158.2c-1.3,1.7-2.1,3.6-2.5,5.7
		c1.7,2.1,4.1,3.6,6.9,2.6c2.9-1.1,1.8-4.6,1.9-7C199,158.3,196.8,158,194.6,158.2z"/>
	<path class="st13" d="M776.4,152.5l1.2,0.7c6.9,3.7,12.5,9.7,19.9,12.4c0.1-4.4,0.1-8.8,0-13.3c1.3,0,2.6,0,3.9-0.1
		c-0.7,0.9-1.3,1.8-2,2.7c0.4,2.3,0.8,4.7-0.1,6.9c-1.3,2.8,0.2,5.7,0.8,8.4c-5.8-3.8-14.2-4.8-20.1-0.7c-4.5,3.6-3.4,10.9,0.8,14.3
		c-3.9,0.4-5.5-4-6.7-6.9c0.1-5.3,5.3-8.2,8.2-12.1c2.6,0.1,5.3,0.1,7.8-0.7C786.2,159.4,778,159.2,776.4,152.5z"/>
	<path class="st14" d="M181.7,157.4c2.2-1,4.7,0.1,6.2,1.9c3.6,3.6-1.9,10.4-6.4,8.3C177.3,165.9,177.5,158.8,181.7,157.4z"/>
	<path class="st15" d="M195,158.9c3.4-0.1,5.4,2.2,5.3,5.5c-2.2,1.5-4.7,1.1-6.9-0.2C193.9,162.4,194.4,160.6,195,158.9z"/>
	<path class="st16" d="M346.3,164.9c2.9-0.6,6.8-1.8,8.6,1.3c2.7,5.1,0.1,11.1,0.1,16.6c0,13.4,0.2,26.7,0,40.1
		c-0.1,3.9,0.8,7.8,0.8,11.6c-1.3,2.9-4.7,3.9-7.6,3.8c-5.6-0.2-11.2-1.2-16.7-2.3c0.2-0.5,0.7-1.4,1-1.9c0.8-0.8,1.6-1.5,2.4-2.2
		c0,1.3-0.1,2.6-0.1,3.9c6.1,0,12.3,0.1,18.4,0c0-23.1,0-46.2,0-69.3c-6.1,0.5-12.2,0.9-18.4,1.1c0,7.4,0,14.8,0.1,22.2
		c-5.2-8.5-18.9-7.3-24,0.7c-5.9,8.8-6,20.1-4.5,30.2c-0.1,0.6-0.2,1.8-0.3,2.4c-4.6-9.9-2.6-21.4,1.3-31.1c1.4-3.9,5.1-6.5,8.7-8.3
		c4.3-0.8,8.8-1.1,13.1-1.5c1,0.8,1.8,1.8,2.7,2.8c1.9-5.2,0.5-10.9,0.3-16.3C335.6,164.1,341.6,165.9,346.3,164.9z"/>
	<path class="st17" d="M451,164.5c4.1-1,8.5-0.4,12.7-0.4c0,0.3,0.1,0.9,0.2,1.2c2.6,2,4.4,5.1,3.4,8.5c-0.2,5.7-7.1,5.6-10.2,9
		c3-0.1,6-0.6,9-0.8c0,0.5,0,1.4,0,1.9c-6.1,1.1-12.4,1.3-18.6,1.5c-0.1,16.9-0.1,33.8,0,50.7c-0.5-0.3-1.5-0.8-2-1.1
		c0.9-15.7,0.1-31.4,0.4-47.1c0.2-1.5,0-3.8,1.7-4.5c2.9-0.4,5.8-0.5,8.5-1.3c-2.7-1.4-5.7-2.2-8.3-3.7c-1.4-1.9-2.2-4.2-2.4-6.5
		C446.2,168.9,448.1,165.8,451,164.5 M453.4,166.1c-5.5,0.4-7,8.4-2.9,11.5c3.6,1.8,8,1.9,11.7,0.5c3.5-1.6,3.7-6.3,2.3-9.3
		C461.9,165.5,457.2,165.5,453.4,166.1z"/>
	<path class="st18" d="M546.2,172.9c7.2-6.7,17.5-8.9,27.1-8.4c2.5,0.2,4.9,1,7.2,2.1c-0.6,0.1-1.9,0.3-2.5,0.4
		c-8.8-1.4-18.6-1-26.2,4.2c-8.5,6-12.1,16.8-12.4,26.8c-0.5,10.6,0.9,22.2,8.3,30.3c5.8,6.7,15.1,9,23.6,8.6
		c8.7-0.4,17.8-3.9,22.8-11.3c5.9-9,6.5-20.3,5.8-30.8c-0.7-11-6.9-22.1-17.3-26.4c6.2-1.5,10.7,4,13.6,8.5c2.8,5.9,5.4,12.2,5,18.9
		c-0.3,8.6,1,17.8-2.9,25.9c-2,4.1-3.5,9.2-7.9,11.4c-3.2,1.5-6.7,2.6-10,3.9c-6.8,2.7-14.5,2-21.4,0.3c-6.2-1.5-12.4-4.9-15.2-10.8
		c-1.8-3.7-4.1-7.2-4.8-11.3c-1.1-6.7-1.6-13.6-0.8-20.3c0.5-3.7,0-7.8,2-11.1C542.4,180.2,543.6,176.1,546.2,172.9z"/>
	<path class="st19" d="M453.4,166.1c3.8-0.6,8.5-0.6,11.1,2.7c1.4,3,1.1,7.7-2.3,9.3c-3.7,1.4-8.1,1.3-11.7-0.5
		C446.4,174.5,448,166.5,453.4,166.1z"/>
	<path class="st20" d="M279.3,165.8c1.8-0.1,3.6-0.7,5.4-0.3c2.8,1.7,3.3,5.4,3.8,8.4c0.5,4,2,7.8,3.2,11.7
		c1.4,4.5,1.6,9.3,3.4,13.6c1.7,4.1,2.1,8.7,3.7,12.9c0.9,2.1,0.4,4.4,0,6.5c-4.8-17-9.6-34.1-14.3-51.1c-5.9,0-11.8,0-17.6,0
		c-5.4,19-11.1,37.9-16.8,56.8c-1.8-3.8,0.1-7.8,1.4-11.4c1.3-3.1,1.8-6.5,2.2-9.8c1.8-3.4,2.6-7.2,3.9-10.8c1.1-3.3,0.4-7,2.2-10.1
		c3.1-5,1.7-12.1,6.9-16C270.8,165.5,275.1,166.3,279.3,165.8z"/>
	<path class="st21" d="M334.8,167.5c6.1-0.1,12.3-0.6,18.4-1.1c0,23.1,0,46.2,0,69.3c-6.1,0.1-12.3,0.1-18.4,0
		c0-1.3,0.1-2.6,0.1-3.9c-0.8,0.7-1.6,1.5-2.4,2.2c-4.2,3.4-10.4,3.6-15.3,1.9c-6.5-2.3-9.3-9.2-10.9-15.4
		c-1.5-10.1-1.4-21.4,4.5-30.2c5.1-8,18.8-9.2,24-0.7C334.8,182.3,334.9,174.9,334.8,167.5 M326,194.6c-1.5,4.9-0.9,10.1-1.3,15.2
		c0.2,6.2-0.9,12.9,2.2,18.7c2.3,0.7,4.7,0.6,6.9-0.4l-0.2-0.6c2.4,1,2.8-2.1,1.1-3.2c0.5-9.1,1.6-18.5-0.4-27.5
		c-0.4-2.3-2.1-4-3.8-5.5C328.8,192,326.6,192.5,326,194.6z"/>
	<path class="st21" d="M447.5,185.4c6.2-0.2,12.5-0.4,18.6-1.5l0,0.9c0,17,0,34,0,50.9c-6.1,0-12.2-0.2-18.3,0.2l-0.4,0
		C447.4,219.2,447.4,202.3,447.5,185.4z"/>
	<path class="st22" d="M551.8,171.3c7.6-5.2,17.4-5.7,26.2-4.2c1.5,0.4,3,0.8,4.5,1.4c10.5,4.3,16.6,15.5,17.3,26.4
		c0.7,10.4,0,21.7-5.8,30.8c-5,7.5-14.1,10.9-22.8,11.3c-8.5,0.4-17.9-1.9-23.6-8.6c-7.4-8.1-8.8-19.8-8.3-30.3
		C539.8,188,543.3,177.2,551.8,171.3 M566.8,172.4c-3.8,1.4-4.8,5.9-5.3,9.4c-1.3,10-1,20.1-0.8,30.1c0.4,5.4,0.2,11.1,2.8,16
		c2.4,4.4,9.6,4.8,12.3,0.5c2.5-3.7,2.3-8.4,2.9-12.6c0.6-10.3,0.6-20.6-0.2-30.9c-0.5-3.7-0.7-7.9-3.4-10.7
		C573.1,171.7,569.5,171.6,566.8,172.4z"/>
	<path class="st22" d="M608,185.5c6.2-0.2,12.4-0.5,18.6-1.4c0,3,0,5.9,0,8.9c3-3.3,6.1-7,10.6-8.2c4.5-1.2,9.8-1.3,14,1.2
		c3.6,2.2,4.7,6.8,4.7,10.8c0,13,0,26,0,38.9c-6.1,0-12.1-0.2-18.2,0.3l0-0.4c-0.2-12.3,0-24.6-0.1-36.9c-0.1-2.3,0.2-5.9-3-5.6
		c-5.6,0.8-7.2,7.7-7.7,12.4c-0.3,10-0.2,20.1-0.1,30.2c-6.2-0.1-12.5,0-18.7,0C608,219,608.1,202.2,608,185.5z"/>
	<path class="st23" d="M780,169.6c6-4.1,14.3-3.1,20.1,0.7c1,0.7,1.8,1.6,2.7,2.6c1.9,3.1,2.5,6.7,2.8,10.3c-0.8,0-2.2-0.1-3-0.1
		c-0.5-2.7-0.7-5.7-2.5-8c-1.7-2.4-4.7-3.3-7.2-4.5c2,3.1,2.8,6.8,1.9,10.4c-2.7,5-9.4,5.6-14,2.9
		C776.7,180.5,775.5,173.2,780,169.6 M780.2,177.9c2.3,5.5,11.4,5,12.6-1.1c-0.7-2.1-1.2-4.7-3.4-5.7
		C785.2,170,778.7,172.6,780.2,177.9z"/>
	<path class="st23" d="M176.6,175.1c1.1,0.2,2.3,0.3,3.4,0.5c-0.7,3-2,6.2-0.8,9.2c1.6,3.8,7.8,4.6,10.1,0.9
		c1.6-2.8,1.1-6.2,1.2-9.3c4.4,0.8,8.9,1.2,13.3,1.9c-0.5,4.3-0.3,8.7-0.2,13.1c-0.8,0-2.5,0-3.3,0c0-3.4,0.3-6.8-0.1-10.2
		c-2.1-0.6-4.3-0.9-6.4-1.3c-0.4,3.3-0.2,7.2-2.8,9.7c-3.6,3.7-10.4,2.9-13.3-1.3c-2.8-3.5-2.1-8.2-1.2-12.3L176.6,175.1z"/>
	<path class="st23" d="M777.6,212.1c1.1,0,2.2,0.1,3.3,0.1c0,3.4,0,6.9-0.1,10.3c2.2,0.3,4.4,0.6,6.6,0.9c0.3-3.3,0.3-7.1,3-9.6
		c3.8-4,11.2-2.5,13.7,2.2c1.8,2.7,1.3,6.1,1.3,9.2c-0.4,1.1-0.8,2.2-1.3,3.3c-1-0.2-1.9-0.5-2.8-0.7c0.7-3.1,2-6.5,0.4-9.4
		c-1.7-3.6-7.3-4.2-9.6-0.9c-1.9,2.7-1.3,6.2-1.3,9.3c-4.4-0.3-8.8-1.1-13.2-1.4C777.6,221,777.6,216.6,777.6,212.1z"/>
	<path class="st24" d="M266.8,167.5c5.9-0.1,11.8,0,17.6,0c4.7,17.1,9.5,34.1,14.3,51.1c1.5,5.7,3.2,11.4,4.7,17.1
		c-6.8,0-13.5,0.2-20.3-0.1c-0.8-4.9-2.6-9.6-3.6-14.4c-6.9-0.2-13.8,0-20.7-0.1c-1.3,4.9-2.9,9.8-4.1,14.7c-2.7,0-5.4,0-8,0
		c1-3.2,1.9-6.5,2.9-9.7c0.1-0.4,0.4-1.3,0.5-1.7C255.7,205.4,261.4,186.5,266.8,167.5 M263.5,207.1l-0.3-0.6
		c-0.8,2.5-1.5,5-2.2,7.5c5.5-0.1,11-0.1,16.5,0c-0.7-2.9-1.2-5.9-2.5-8.7c-1.4-7.2-4.1-14.2-5.3-21.4
		C267.8,191.7,264.7,199.2,263.5,207.1z"/>
	<path class="st24" d="M495.1,169.5c0.2-0.1,0.6-0.3,0.8-0.4v0.4c-0.1,5.3-0.1,10.6,0,15.9c2.6,0,5.2,0,7.8-0.1v0.2
		c0,1.9,0,3.8,0.1,5.6c-2.7,0-5.3,0.1-8,0.1c0.2,12.8-0.2,25.7,0.2,38.5c2.9-0.8,5.7-2,8.8-1.9c-0.9,2.9-2.1,6.3-5.4,7.4
		c-5.4,1.8-11.6,1.7-16.9-0.7c-3.7-1.7-5.4-5.9-5.4-9.8c-0.2-11.2,0.1-22.4-0.1-33.5c-2.1,0-4.1,0-6.2,0c0-2,0-3.9,0.1-5.9
		c2,0,4,0,6,0c0-3,0.2-6,0.3-9C483.6,174.8,489.5,172.5,495.1,169.5z"/>
	<path class="st25" d="M484.1,172.3c3.7-1,6.9-5.1,11-2.8c-5.6,3-11.5,5.3-17.6,6.9c-0.2,3-0.3,6-0.3,9c-2,0-4,0-6,0
		c0,1.9-0.1,3.9-0.1,5.9c2,0,4.1,0,6.2,0c0.2,11.2-0.1,22.4,0.1,33.5c-0.1,3.9,1.6,8.1,5.4,9.8c5.2,2.4,11.5,2.5,16.9,0.7
		c3.2-1.1,4.5-4.4,5.4-7.4c-3.1-0.1-5.9,1.1-8.8,1.9c-0.4-12.8,0-25.7-0.2-38.5c2.6,0,5.3-0.1,8-0.1c0-1.9,0-3.8-0.1-5.6
		c3.9,1.3,1.5,5.4,0.3,7.9c-1.9,0.1-3.9,0.2-5.8,0.3c-0.7,11,0.3,22.1-0.6,33.1c2.4,0,6.2-1.9,7.6,0.9c2.4,3.2-1.8,6.1-3.7,8.3
		c-2.6,3.2-6.9,2-10.4,2.4c-5,0.6-10.4-0.9-14-4.4c-2.5-5.3-1.5-11.5-1.7-17.2c-0.2-7.8,0.5-15.6-0.5-23.3c-2.3-0.8-4.6-1.6-6.8-2.5
		c-1.6,6.5-0.6,13.2-0.9,19.8c-0.1,6.9-0.3,13.9,1.4,20.7c1.3,4.2-3.7,6.9-7.3,6.3c-4.5-0.5-9.4,0.6-13.5-1.8
		c6.1-0.4,12.2-0.2,18.3-0.2c0-17,0-34,0-50.9c0.8,0.7,1.5,1.4,2.3,2.2c2.1-1.7,4.3-3.2,6.5-4.6c0.2-2.1,0.2-4.2,0.7-6.2
		C477.4,173.3,481.3,173.5,484.1,172.3z"/>
	<path class="st26" d="M495.9,169.5c5.1,2.6,0.6,8.8,1.7,13c2.2,0.5,4.6,0.4,6.7,1.4c-0.1,0.4-0.4,1.1-0.6,1.4
		c-2.6,0.1-5.2,0.1-7.8,0.1C495.8,180.2,495.8,174.9,495.9,169.5z"/>
	<path class="st27" d="M780.2,177.9c-1.6-5.3,5-7.9,9.2-6.8c2.3,1,2.8,3.6,3.4,5.7C791.6,183,782.5,183.4,780.2,177.9z"/>
	<path class="st28" d="M792.9,170.6c2.6,1.2,5.5,2.1,7.2,4.5c1.8,2.2,2,5.2,2.5,8c0.7,0,2.2,0,3,0.1c-0.3-3.6-0.9-7.2-2.8-10.3
		c5.2,1.6,6.1,8.7,3.3,12.8c-1.3,0.3-2.5-0.5-3.5-1.1c-3.1-1.6-1.8-5.9-4.5-7.9c-0.7,1.8-0.7,4.5-3.3,4.3
		C795.8,177.4,794.9,173.7,792.9,170.6z"/>
	<path class="st29" d="M566.8,172.4c2.8-0.8,6.3-0.7,8.2,1.7c2.7,2.9,2.9,7,3.4,10.7c0.9,10.3,0.9,20.6,0.2,30.9
		c-0.5,4.2-0.4,8.9-2.9,12.6c-2.8,4.3-9.9,3.9-12.3-0.5c-2.6-4.9-2.4-10.6-2.8-16c-0.2-10-0.5-20.1,0.8-30.1
		C562,178.3,563,173.8,566.8,172.4z"/>
	<path class="st30" d="M174.2,182.8c0.2-2.9-0.4-6.6,2.4-8.4l-0.1,1.7c-0.8,4.1-1.6,8.8,1.2,12.3c2.9,4.2,9.7,5,13.3,1.3
		c2.6-2.6,2.4-6.4,2.8-9.7c2.2,0.4,4.3,0.7,6.4,1.3c0.4,3.4,0.1,6.8,0.1,10.2c0.8,0,2.5,0,3.3,0c-0.1-4.4-0.3-8.7,0.2-13.1l0.1-1.2
		c2.9,3.9,2.4,9.6,0.5,13.9c-1.2,2.2-3.9,0.5-5.7,0.3c-0.8-2.3-1.2-4.6,0.4-6.7c-0.9-0.9-1.8-1.7-2.9-2.5c-1.4,2.9-1.9,6.2-3.9,8.7
		c-1.2,1.6-3.3,2.3-5,3.2c4.3,2.5,7.9,6,12.3,8.4c2.4,1.6,5.1,2.7,7,4.9c0.5,2.8-1.4,7.7-5,6.8c-5-1.1-10.1-0.7-15.1,0.3
		c0-0.7,0-2.1,0-2.8c5.7-0.1,11.4,0.1,17.1-0.1c0-1.3-0.1-2.7-0.1-4c-6.6-4.2-12.5-9.9-19.8-12.8C178.8,193,173.6,188.6,174.2,182.8
		z"/>
	<path class="st31" d="M364.3,183.9c6.1-1.3,12.4-2.1,18.7-1.8c0.3,1,0.7,2,1,3c1.2,0.6,2.4,1.1,3.6,1.6c-2.1,1.6-4,3.4-5.9,5.2
		c0-2.6,0-5.3,0-7.9c-6.2,0.8-12.4,1.1-18.6,1.2c0.1,16.8,0.1,33.6,0,50.4c6.2,0.1,12.4,0.1,18.6,0c0-9.3,0-18.6,0-27.9
		c0-4.5,0.4-9.4,3.3-13c1.1-1.8,3.5-1.6,5.3-1.1c0.8,2.6,0.7,5.4,0.7,8.1c-0.1,11.3,0,22.6,0,33.9c5.8,0.1,11.6-0.1,17.4,0.1
		c-0.2,1.3-0.4,2.5-0.6,3.8c-1.7-0.1-3.3-0.3-5-0.7c0-0.5,0.1-1.4,0.1-1.9c-1.8,0-3.6,0-5.3,0.1c-2.2,1.7-5.3,2-7.5,0
		c-2.9-5-0.9-10.9-0.7-16.2c0.6-6-1.4-12-0.2-18c0.6-2.5,0.1-4.9-0.9-7.2c-6.2,6.1-5.1,15.3-5.2,23.2c-0.2,6.1,2.6,12.6-0.6,18.4
		c-1.5,1.2-3.6,1.2-5.5,1.3c-3.5,0-6.9,0.9-10.4,1.3c-0.2-0.6-0.6-1.9-0.8-2.6c-1.4-0.4-2.8-0.7-4.1-1c-1-4.7-1.2-9.5-0.5-14.2
		c0.3-10.7,0.1-21.4,0.1-32.1C361.5,187.7,361.3,184.2,364.3,183.9z"/>
	<path class="st32" d="M609.6,182.2c5.4,1.8,10.9-1.3,16.4-0.1c0.8,1.3,1.3,2.7,2.1,4c1.5,1.5,3.2-0.2,4.4-1.1
		c3-2.7,7.3-2.6,11.1-2.6c4.2,0.1,9.5,0.1,11.8,4.3c3.5,4.7,2.2,10.8,2.2,16.2c-0.3,9.6-0.1,19.3,0.4,28.9c0.2,3.1-1.7,7.8-5.5,6.7
		c-5-0.7-10.3,0-14.8-2.5c6-0.5,12.1-0.3,18.2-0.3c0-13,0-26,0-38.9c0-4-1.1-8.6-4.7-10.8c-4.2-2.5-9.4-2.4-14-1.2
		c-4.5,1.2-7.6,4.9-10.6,8.2c0.1-3,0.1-5.9,0-8.9c-6.2,0.8-12.4,1.2-18.6,1.4c0,16.8,0,33.6,0,50.3c6.2,0.1,12.5,0,18.7,0
		c-0.3,0.6-0.9,1.8-1.2,2.4c-5.4-0.1-10.7-0.8-16.1-0.4c-1.7-0.9-3.4-1.9-5-2.8c2.4-5.2,1-10.8,1.1-16.2c-0.2-8,1.8-15.9,0.5-23.9
		c-0.1-3.1-1.7-7,0.8-9.5C607.7,184.3,608.7,183.2,609.6,182.2z"/>
	<path class="st33" d="M684.3,182.4c9.2-1.2,20.3,2.2,24.2,11.3c1.3,6.4,3.8,13.2,1.8,19.7c-6.3,0.2-12.7,0.7-19,0.3
		c-2.5-0.3-4.9,0.4-7.1,1.6c1.9,4.7,2.2,10.1,5.2,14.3c3.8,1.7,8.4-0.7,10.5-4c0.6-2.6,0.6-5.3,0.9-7.9c0.3,0.6,1,1.8,1.3,2.4
		c0.1,2.9-0.2,6.1-2,8.5c-3.6,5.5-13.6,4.6-15.7-1.8c-1.7-4.6-1.4-9.6-1.7-14.5c8.8,0,17.7-0.1,26.6,0.1c0.3-7.5-0.2-16-5.5-21.9
		c-5.5-6.5-15-7.7-22.9-5.8c-8.2,2.1-13.9,9.6-16,17.5c-1.8,6.7-1.9,14,0.5,20.6c2.4,6.9,8.7,11.9,15.8,13.3
		c7.9,1.6,17.1,1.4,23.6-4c3.8-3,4.4-8.2,4.7-12.8c-1.9-0.5-3.8-1.1-5.7-1.6c2.1-0.9,5.1-0.9,6.6,1.1c1.9,4,0.2,8.6-2.1,12
		c-3.4,4.3-8.5,7.1-13.9,8c-5.3,1.2-10.6-0.5-15.7-1.6c-6.2-1.3-11.7-5.8-13.9-11.8c-1.4-3.8-2.8-7.6-2.8-11.7
		c0.5-7.1,1.2-14.5,4.5-21C670.5,187.1,677.1,182.8,684.3,182.4z"/>
	<path class="st34" d="M363.1,185.4c6.2-0.2,12.4-0.5,18.6-1.2c0,2.6,0,5.3,0,7.9c1.9-1.8,3.8-3.6,5.9-5.2c4.4-2.8,10-3.4,15-2.1
		c3.5,0.9,5,4.4,6.6,7.1c4.7-6,12.8-9.6,20.3-7c4.8,1.2,7.7,6.2,7.6,10.9c0,13.4,0,26.8,0,40.3l-0.4,0c-6-0.3-12.1-0.2-18.2-0.2
		c0.1-11.3,0-22.6,0.1-33.9c0-2.7,0.1-5.6-1.1-8.1c-2.2-1.2-4.8,0.1-5.9,2.2c-2.4,4.2-2.4,9.2-2.5,14c0,8.6-0.1,17.3,0.1,25.9l-1,0
		c-5.8-0.1-11.6,0-17.4-0.1c0.1-11.3,0-22.6,0-33.9c0-2.7,0.1-5.4-0.7-8.1c-1.8-0.5-4.1-0.7-5.3,1.1c-2.9,3.6-3.3,8.6-3.3,13
		c0,9.3,0,18.6,0,27.9c-6.2,0-12.4,0.1-18.6,0C363.2,218.9,363.2,202.2,363.1,185.4z"/>
	<path class="st35" d="M680.8,184.8c7.9-1.9,17.4-0.8,22.9,5.8c5.3,5.9,5.7,14.4,5.5,21.9c-8.8-0.1-17.7,0-26.6-0.1
		c0.3,4.8,0,9.9,1.7,14.5c2.2,6.4,12.1,7.2,15.7,1.8c1.8-2.4,2.1-5.6,2-8.5c0-0.7,0-2.1-0.1-2.7c0.4,0.1,1.2,0.3,1.7,0.5
		c1.9,0.5,3.8,1.1,5.7,1.6c-0.3,4.5-0.9,9.7-4.7,12.8c-6.5,5.3-15.7,5.5-23.6,4c-7.1-1.4-13.4-6.4-15.8-13.3
		c-2.3-6.6-2.2-13.9-0.5-20.6C666.9,194.3,672.7,186.9,680.8,184.8 M685.4,190.9c-2.7,4.7-2.2,10.4-2.8,15.6c3.6,0,7.2,0,10.8,0
		c-0.3-5.2,0.2-10.8-2.3-15.6C690.2,188.6,686.4,188.6,685.4,190.9z"/>
	<path class="st36" d="M792.5,190.6c0.5-1.8,1.1-5.7,3.8-3.9c2.7,2.6,6.2,3.5,9.7,4.5c0.3,1.8,0.3,3.6,0.3,5.3
		c-2.1,0.3-4.3,0.2-6.3,1c-1.5,0.9-1.2,2.8-1.3,4.2c0,3-0.4,6-1,8.9c2.4,0.6,5.4,0.6,7,2.9c3.1,3.9,2.2,9.1,1.3,13.6
		c-0.2-0.5-0.5-1.4-0.6-1.9c0-3.1,0.5-6.5-1.3-9.2c-2.6-4.7-9.9-6.2-13.7-2.2c-2.6,2.5-2.6,6.3-3,9.6c-2.2-0.3-4.4-0.6-6.6-0.9
		c0-3.4,0-6.9,0.1-10.3c-1.1-0.1-2.2-0.1-3.3-0.1c0,4.5,0,9,0,13.4c-0.5,0-1.5-0.1-2-0.2c-1.5-4.9-0.2-10.2,0.4-15.1
		c2.3,0.2,4.7,0.6,7,1.1c-0.2,3.4-2.2,8.1,1.5,10.3c0.3-0.1,0.9-0.2,1.2-0.2c1-2.8,1-6,2.5-8.6c2.2-1.6,4.7-2.9,6.9-4.4
		c0.6,0,1.8-0.1,2.4-0.1c0-4.2,0.1-8.5,0-12.7c2.5,0,5,0,7.5,0c0-0.9,0-2.7,0-3.6c-2.5,0-5,0-7.5-0.1c0-1.3,0-2.6,0-3.9
		c-0.7,0.1-2.2,0.2-2.9,0.2c0,1.2,0,2.5,0,3.7c-5.6-0.1-11.3,0.4-16.9-0.3c-0.4-0.1-1.3-0.3-1.7-0.4
		C781.4,190,787,190.3,792.5,190.6z"/>
	<path class="st37" d="M794.6,188.1c0.7-0.1,2.2-0.2,2.9-0.2c0,1.3,0,2.6,0,3.9c2.5,0,5,0,7.5,0.1c0,0.9,0,2.7,0,3.6
		c-2.5,0-5,0-7.5,0c0,4.2,0,8.5,0,12.7c-0.6,0-1.8,0.1-2.4,0.1c-5.7-4.2-11.6-8.2-17.5-12.2c0-1.5,0-3.1,0-4.6
		c5.6,0.7,11.3,0.2,16.9,0.3C794.6,190.6,794.6,189.4,794.6,188.1 M781.5,195.4c1.4,0.8,2.9,1.6,4.3,2.4c2.8,2.2,5.8,4.3,8.7,6.4
		c0.1-2.4,0.1-4.8,0.3-7.1c-0.3-0.4-0.8-1.1-1-1.5C789.7,195.4,785.6,195.7,781.5,195.4z"/>
	<path class="st38" d="M685.4,190.9c1-2.3,4.8-2.3,5.8,0.1c2.5,4.8,2,10.4,2.3,15.6c-3.6,0-7.2,0-10.8,0
		C683.1,201.3,682.7,195.6,685.4,190.9 M684.2,203.9c1.9,2.1,5.5,0.1,7.9-0.4c-0.3-4.3-1-8.8-3.6-12.3
		C684.5,194.1,684.9,199.5,684.2,203.9z"/>
	<path class="st39" d="M326,194.6c0.6-2.1,2.8-2.6,4.6-3.3c1.7,1.4,3.5,3.1,3.8,5.5c0.9,7.7,0.6,15.4,0.3,23.1c0,2-0.7,3.9-1.6,5.8
		c0.1,0.4,0.4,1.4,0.5,1.8l0.2,0.6c-2.2,1-4.6,1.1-6.9,0.4c-3.1-5.7-2-12.4-2.2-18.7C325.1,204.8,324.5,199.5,326,194.6 M327.6,195
		c-2,6.4-1.6,13.3-1.6,20c0.3,4.1-0.1,8.5,2.3,12c1.6-0.8,3.2-1.5,4.7-2.3c1-9.2,1-18.6-0.5-27.8C332.7,194.1,329.5,194,327.6,195z"
		/>
	<path class="st40" d="M684.2,203.9c0.6-4.4,0.3-9.8,4.2-12.7c2.6,3.6,3.3,8,3.6,12.3C689.7,204,686.1,206,684.2,203.9z"/>
	<path class="st41" d="M411.6,195.9c1.1-2.1,3.7-3.4,5.9-2.2c1.3,2.5,1.1,5.4,1.1,8.1c-0.1,11.3,0,22.6-0.1,33.9
		c6,0,12.1-0.1,18.2,0.2c-3.7,2.4-8.3,1.5-12.4,1.9c-2.8,0.2-6.7-0.1-7.5-3.3c-0.4-4.9,1-9.8,0.7-14.7c-0.3-7.7,0.7-15.5-0.2-23.2
		c-2.8,1.5-6.3,3.5-6,7.2c-0.1,8.9-0.7,17.9,0.5,26.8c0.2,2,0.1,4.9-2.5,5.2c-0.2-8.6-0.1-17.3-0.1-25.9
		C409.2,205.2,409.2,200.2,411.6,195.9z"/>
	<path class="st42" d="M626.8,205.7c0.5-4.7,2.1-11.7,7.7-12.4c3.3-0.3,3,3.3,3,5.6c0,12.3-0.1,24.6,0.1,36.9
		c-1.7-0.1-3.9,0.1-4.3-2c0.5-1.7,1.2-3.3,1.8-4.9c0-9,0.4-18,0.3-27c0-2.2-0.7-4.2-1.4-6.2c-2,1.9-3.5,4.2-4.2,6.8
		c-2,5.3-0.3,10.9-0.7,16.3c0.3,4.8-2.2,10.1,1,14.4c-0.9,0.9-1.8,1.8-2.8,2.8C626.8,225.9,628.6,215.7,626.8,205.7z"/>
	<path class="st43" d="M327.6,195c1.9-1,5.1-0.9,5,1.9c1.5,9.1,1.4,18.6,0.5,27.8c-1.6,0.8-3.2,1.5-4.7,2.3c-2.4-3.5-2-8-2.3-12
		C326,208.3,325.6,201.4,327.6,195z"/>
	<path class="st44" d="M781.5,195.4c4.1,0.2,8.2,0,12.3,0.2c0.3,0.4,0.8,1.1,1,1.5c-2.2-0.3-4.3-0.6-6.5-0.9
		c-0.6,0.4-1.9,1.3-2.5,1.7C784.4,197,782.9,196.2,781.5,195.4z"/>
	<path class="st45" d="M334.4,196.8c2,9,0.9,18.4,0.4,27.5c1.7,1.1,1.3,4.2-1.1,3.2c-0.1-0.5-0.4-1.4-0.5-1.8
		c0.9-1.8,1.6-3.7,1.6-5.8C335,212.2,335.2,204.5,334.4,196.8z"/>
	<path class="st46" d="M785.8,197.9c0.6-0.4,1.9-1.3,2.5-1.7c2.2,0.3,4.3,0.7,6.5,0.9c-0.2,2.4-0.2,4.7-0.3,7.1
		C791.6,202.2,788.6,200.1,785.8,197.9z"/>
	<path class="st47" d="M186.6,199.4c4.3,2.8,8.4,5.9,12.7,8.7c-4.2,0-8.5,0-12.8-0.1C186.6,205.1,186.6,202.3,186.6,199.4z"/>
	<path class="st48" d="M176.2,217.9c5.8,0.8,3.9,9.4,9.8,10.2c0.7,1.7,1.5,3.4,2.3,5c-3.9-1.7-8.7-4-9-8.9c0.1-0.7,0.2-2,0.3-2.6
		C178.4,220.4,177.3,219.2,176.2,217.9z"/>
	<path class="st49" d="M189.7,219.3c4.6-2.7,10.8-0.6,13.6,3.8c1.2,3.9,1.2,8.8-2.6,11.3c-6.2,3.8-14.6,2.6-20.4-1.6
		c-3.3-3.2-5.2-8.1-4.2-12.6c0.9,0.8,1.9,1.5,2.8,2.3c0.1,0.4,0.2,1.3,0.3,1.8c0.3,4.9,5.1,7.2,9,8.9c-0.8-1.7-1.6-3.3-2.3-5
		C185.4,224.8,186.5,220.9,189.7,219.3 M191.8,222.4c-2.8,1.1-3.7,4.7-2.5,7.3c2.2,6.1,13.6,2.4,11.7-3.8
		C199.9,222.2,195,221.1,191.8,222.4z"/>
	<path class="st50" d="M258.8,221.1c6.9,0.1,13.8-0.1,20.7,0.1c1.1,4.9,2.9,9.5,3.6,14.4c-0.1,0.4-0.2,1.1-0.3,1.5
		c-2.1-4.5-4.8-9-4.7-14.2c-5.8-0.2-12.1-1.3-17.4,1.3c-2.6,4-2.8,9-5,13.2c-3.1,2-6.8,0.5-10-0.1c-1.1-4.2,0.1-8.4,1.7-12.3
		c0.5,0.2,1.6,0.8,2.1,1c-0.9,3.2-1.9,6.5-2.9,9.7c2.7,0,5.4,0,8,0C256,230.8,257.5,226,258.8,221.1z"/>
	<path class="st51" d="M191.8,222.4c3.2-1.3,8.1-0.2,9.2,3.5c1.9,6.2-9.6,9.9-11.7,3.8C188.1,227.1,189,223.5,191.8,222.4z"/>
	<path class="st52" d="M203.3,223c-0.3-2.2,2.4-1.1,2.7,0.2c1.2,3.7,0.1,8-2.4,10.9c-3.2,3.8-8.7,3.6-13.2,5
		c2.6,2.4,5.6,4.4,8.7,6.1c1.6,0.6,1.6,2.6,2.1,3.9c-6-3.5-10.9-8.9-17.6-11c-0.1,4.4-0.1,8.8-0.1,13.2c-2.2,0-4.5-0.1-6.7-0.1
		c1.5-1.1,3.3-1.6,5-2.1c-0.4-3.3,1.1-7.1-1-10c0.2-0.1,0.6-0.3,0.8-0.3c-0.6-2-1-4-1.3-6.1c5.7,4.2,14.2,5.4,20.4,1.6
		C204.5,231.9,204.5,227,203.3,223z"/>
	<path class="st53" d="M790.3,232.6c2.9-0.5,5.6-2.8,8.7-2.2c6.1,1,9.2,8,8.6,13.6c0,3.4-3.2,5.9-6.5,6.2c5.9-4.1,6-14.8-0.9-17.8
		c-4.1-1.8-7.8,1.1-9.9,4.4c-2-2.2-4.6-4.7-7.9-3.8c-8.2,1.7-6.7,16.5,1.8,16.5c2.9,0.4,4.7-2.1,6.4-4c1.1,1.6,2.3,3.2,3.8,4.4
		c-2-0.2-4.1-0.7-6.1,0c-2.2,0.4-4.5,1.9-6.7,0.7c-2.6-1.4-4.7-3.4-7.1-5.2c-0.2-2.6-1.3-5.5,0.5-7.7c1.6-2.3,3.3-4.6,5.5-6.4
		C783.9,230.8,787.1,232.4,790.3,232.6z"/>
	<path class="st54" d="M790.4,236.8c2-3.4,5.8-6.3,9.9-4.4c7,3,6.8,13.7,0.9,17.8c-2.2,0.4-4.5,0.4-6.7-0.3
		c-1.5-1.3-2.7-2.8-3.8-4.4c-1.7,1.9-3.5,4.4-6.4,4c-8.5,0-10-14.8-1.8-16.5C785.8,232.1,788.4,234.5,790.4,236.8 M795.6,236.3
		c-1.3,0.6-2.2,1.9-2.8,3.1c-2.6,3.9,3,8.9,6.8,6.8c3.2-1.2,3.9-5.3,2.4-8C801,235.8,797.8,235.1,795.6,236.3 M780.9,237.7
		c-0.9,2.2-0.9,4.5-0.3,6.8c1.8,1,3.9,1.2,5.9,1c0.9-1.7,2.8-3.3,2.3-5.5c-0.7-1.9-2.6-2.8-4.3-3.6
		C783.3,236.8,782.1,237.3,780.9,237.7z"/>
	<path class="st55" d="M795.6,236.3c2.2-1.2,5.4-0.5,6.4,1.9c1.5,2.7,0.7,6.9-2.4,8c-3.8,2.1-9.3-3-6.8-6.8
		C793.5,238.1,794.3,236.9,795.6,236.3z"/>
	<path class="st56" d="M183.7,238.2c6.7,2.1,11.6,7.5,17.6,11l0.1,0.1c0.6,0.4,1.7,1.2,2.3,1.6c0,1.3,0,2.6,0.1,3.9
		c-5.6,0.3-11.3,0.2-16.9,0.1c-0.1,0.7-0.2,2-0.2,2.7c0.4,1.8-1.9,0.9-2.9,1.2c0-1.2,0-2.5,0.1-3.7c-2.6-0.1-5.2-0.2-7.7-0.3
		c0.4-1-0.1-3.1,0.9-3.5c2.2,0,4.5,0.1,6.7,0.1C183.6,247,183.6,242.6,183.7,238.2 M186.6,242.6c0,2.9,0,5.8,0.1,8.8
		c4.5,0,8.9,0,13.4,0C195.1,249.1,191.1,245.5,186.6,242.6z"/>
	<path class="st57" d="M781.1,241.9c-0.9-2.5,1.7-3.8,3.3-5.2c1.4,1.8,3.2,3.8,2.7,6.3C785.8,245.7,781.2,244.8,781.1,241.9z"/>
	<path class="st58" d="M186.6,242.6c4.5,2.9,8.5,6.5,13.4,8.7c-4.5,0-8.9,0-13.4,0C186.6,248.4,186.6,245.5,186.6,242.6z"/>
	<path class="st59" d="M201.4,249.2c2.5-2.6,4.9,0.1,6.8,1.8c-0.9,1.9-1.5,4.1-3.3,5.4c-2.9,2.6-6.9-0.8-10.2,0.7
		c-1.9,0.8-3.8,1.7-5.8,2.4c-0.6-0.5-1.7-1.5-2.3-2c0.1-0.7,0.2-2,0.2-2.7c5.6,0.1,11.3,0.1,16.9-0.1c0-1.3,0-2.6-0.1-3.9
		C203.1,250.4,201.9,249.6,201.4,249.2z"/>
	<path class="st60" d="M773,257c1.4-1.9,3-3.6,4.7-5.3c0,0.5,0,1.5,0,2c-0.1,5.9-0.1,11.8,0,17.7c0.8,0,2.3-0.1,3.1-0.1
		c0-4.5,0-8.9,0-13.4c2,0.9,3.9,1.9,5.8,2.9c-1.5,0.1-3,0.2-4.5,0.4c0.5,1.5,1,3,1.6,4.6c-0.6,2.2-1.1,4.4-2.1,6.5
		c-1.6,0.8-3.3,1.2-5,1.7C774.6,268.4,775.1,262.4,773,257z"/>
	<path class="st61" d="M777.6,253.7c1.6,0.2,3.2,0.4,4.6,1.1c7.6,3.7,15.3,7.3,22.9,11c-0.1,1.3-0.1,2.6-0.2,3.9
		c-6.1-3-12.3-6-18.4-9c-1.9-1-3.9-1.9-5.8-2.9c0,4.5,0,8.9,0,13.4c-0.8,0-2.3,0.1-3.1,0.1C777.5,265.5,777.5,259.6,777.6,253.7z"/>
	<path class="st62" d="M193.4,268.2c2.4-2.8,4.7-6,8.7-6.4c2.1,3.6,3.8,7.6,4.1,11.8c-8.5,1.9-17.3,0.6-25.9,1
		c-2.4,0-7.2-0.2-6.6-3.7c-0.1-1.9,2.4-2.1,3.8-2.5C182.8,268.1,188.1,267.2,193.4,268.2 M197.5,264.5c0.8,1.7,1.6,3.3,2.4,5
		c-7.9,0.1-15.9,0-23.8,0.1c0,0.9,0,2.8,0,3.7c9.2,0,18.5,0,27.7,0c0-3.3-1.7-6.2-3.3-9.1C199.6,264.3,198.5,264.4,197.5,264.5z"/>
	<path class="st63" d="M197.5,264.5c1-0.1,2.1-0.2,3.1-0.3c1.6,2.8,3.3,5.7,3.3,9.1c-9.2,0-18.5,0-27.7,0c0-0.9,0-2.8,0-3.7
		c7.9-0.1,15.9,0,23.8-0.1C199.1,267.8,198.3,266.1,197.5,264.5z"/>
</g>
</svg>
